<svg width="154" height="94" viewBox="0 0 154 94" fill="none" xmlns="http://www.w3.org/2000/svg">
<g filter="url(#filter0_di_5427_1829)">
<g clip-path="url(#clip0_5427_1829)">
<g clip-path="url(#clip1_5427_1829)">
<rect width="150" height="90" transform="translate(2 1)" fill="url(#paint0_linear_5427_1829)"/>
<path d="M2.5 11C2.5 5.75329 6.7533 1.5 12 1.5H142C147.247 1.5 151.5 5.7533 151.5 11V81C151.5 86.2467 147.247 90.5 142 90.5H12C6.75329 90.5 2.5 86.2467 2.5 81V11Z" stroke="url(#paint1_linear_5427_1829)"/>
<mask id="mask0_5427_1829" style="mask-type:alpha" maskUnits="userSpaceOnUse" x="2" y="1" width="150" height="90">
<path d="M2 1H152V91H2V1Z" fill="url(#paint2_linear_5427_1829)"/>
</mask>
<g mask="url(#mask0_5427_1829)">
<path d="M35.5 21C35.5 16.8579 38.8579 13.5 43 13.5H112C116.142 13.5 119.5 16.8579 119.5 21V83C119.5 87.1421 116.142 90.5 112 90.5H43C38.8579 90.5 35.5 87.1421 35.5 83V21Z" fill="white"/>
<path d="M35.5 21C35.5 16.8579 38.8579 13.5 43 13.5H112C116.142 13.5 119.5 16.8579 119.5 21V83C119.5 87.1421 116.142 90.5 112 90.5H43C38.8579 90.5 35.5 87.1421 35.5 83V21Z" stroke="#F2E5FF"/>
<path d="M27.5 27C27.5 22.8579 30.8579 19.5 35 19.5H119C123.142 19.5 126.5 22.8579 126.5 27V89C126.5 93.1421 123.142 96.5 119 96.5H35C30.8579 96.5 27.5 93.1421 27.5 89V27Z" fill="white"/>
<path d="M27.5 27C27.5 22.8579 30.8579 19.5 35 19.5H119C123.142 19.5 126.5 22.8579 126.5 27V89C126.5 93.1421 123.142 96.5 119 96.5H35C30.8579 96.5 27.5 93.1421 27.5 89V27Z" stroke="#F2E5FF"/>
<path d="M17.5 33C17.5 28.8579 20.8579 25.5 25 25.5H129C133.142 25.5 136.5 28.8579 136.5 33V95C136.5 99.1421 133.142 102.5 129 102.5H25C20.8579 102.5 17.5 99.1421 17.5 95V33Z" fill="white"/>
<path d="M17.5 33C17.5 28.8579 20.8579 25.5 25 25.5H129C133.142 25.5 136.5 28.8579 136.5 33V95C136.5 99.1421 133.142 102.5 129 102.5H25C20.8579 102.5 17.5 99.1421 17.5 95V33Z" stroke="#F2E5FF"/>
<path d="M79.0459 45.1626V52.5548L85.1883 56.2399C85.4977 56.4257 85.7206 56.7268 85.8079 57.077C85.8953 57.4271 85.84 57.7977 85.6542 58.107C85.4684 58.4164 85.1673 58.6393 84.8171 58.7267C84.467 58.8141 84.0964 58.7588 83.787 58.573L76.9849 54.4917C76.7836 54.3708 76.617 54.1997 76.5014 53.9953C76.3858 53.7909 76.325 53.56 76.3251 53.3252V45.1626C76.3251 44.8018 76.4684 44.4558 76.7236 44.2006C76.9787 43.9455 77.3247 43.8022 77.6855 43.8022C78.0463 43.8022 78.3924 43.9455 78.6475 44.2006C78.9026 44.4558 79.0459 44.8018 79.0459 45.1626ZM77.6855 37.0001C75.5394 36.9947 73.4136 37.415 71.4311 38.2367C69.4485 39.0584 67.6486 40.2651 66.1355 41.787C64.8992 43.0386 63.8007 44.2426 62.7208 45.5027V42.4418C62.7208 42.0809 62.5775 41.7349 62.3224 41.4798C62.0673 41.2247 61.7212 41.0813 61.3604 41.0813C60.9996 41.0813 60.6536 41.2247 60.3985 41.4798C60.1433 41.7349 60 42.0809 60 42.4418V49.2439C60 49.6047 60.1433 49.9507 60.3985 50.2058C60.6536 50.461 60.9996 50.6043 61.3604 50.6043H68.1625C68.5234 50.6043 68.8694 50.461 69.1245 50.2058C69.3796 49.9507 69.523 49.6047 69.523 49.2439C69.523 48.8831 69.3796 48.537 69.1245 48.2819C68.8694 48.0268 68.5234 47.8835 68.1625 47.8835H64.2513C65.4672 46.4516 66.678 45.1031 68.0588 43.7052C69.9496 41.8145 72.3556 40.5229 74.9762 39.9918C77.5968 39.4606 80.3158 39.7135 82.7935 40.7189C85.2712 41.7243 87.3977 43.4375 88.9073 45.6445C90.4169 47.8516 91.2426 50.4545 91.2813 53.1281C91.32 55.8018 90.5699 58.4275 89.1248 60.6773C87.6797 62.927 85.6036 64.7011 83.1561 65.7777C80.7085 66.8543 77.9979 67.1858 75.363 66.7307C72.7281 66.2756 70.2857 65.0541 68.3411 63.2188C68.2111 63.096 68.0582 63 67.8912 62.9363C67.7241 62.8725 67.5461 62.8423 67.3673 62.8474C67.1886 62.8524 67.0126 62.8926 66.8494 62.9657C66.6861 63.0388 66.5389 63.1433 66.4161 63.2733C66.2933 63.4032 66.1973 63.5561 66.1335 63.7232C66.0698 63.8903 66.0396 64.0683 66.0446 64.247C66.0497 64.4258 66.0899 64.6018 66.163 64.765C66.236 64.9282 66.3405 65.0754 66.4705 65.1983C68.4082 67.0268 70.7639 68.3533 73.3322 69.062C75.9004 69.7708 78.6031 69.8402 81.2043 69.2642C83.8055 68.6882 86.2262 67.4843 88.2552 65.7576C90.2841 64.0309 91.8597 61.8339 92.8443 59.3583C93.8289 56.8827 94.1926 54.2037 93.9038 51.5552C93.6149 48.9067 92.6822 46.3691 91.1872 44.1639C89.6921 41.9588 87.68 40.153 85.3265 38.9043C82.9731 37.6555 80.3497 37.0018 77.6855 37.0001Z" fill="#8040BF"/>
</g>
</g>
</g>
</g>
<defs>
<filter id="filter0_di_5427_1829" x="0" y="0" width="154" height="94" filterUnits="userSpaceOnUse" color-interpolation-filters="sRGB">
<feFlood flood-opacity="0" result="BackgroundImageFix"/>
<feColorMatrix in="SourceAlpha" type="matrix" values="0 0 0 0 0 0 0 0 0 0 0 0 0 0 0 0 0 0 127 0" result="hardAlpha"/>
<feOffset dy="1"/>
<feGaussianBlur stdDeviation="1"/>
<feComposite in2="hardAlpha" operator="out"/>
<feColorMatrix type="matrix" values="0 0 0 0 0 0 0 0 0 0 0 0 0 0 0 0 0 0 0.08 0"/>
<feBlend mode="normal" in2="BackgroundImageFix" result="effect1_dropShadow_5427_1829"/>
<feBlend mode="normal" in="SourceGraphic" in2="effect1_dropShadow_5427_1829" result="shape"/>
<feColorMatrix in="SourceAlpha" type="matrix" values="0 0 0 0 0 0 0 0 0 0 0 0 0 0 0 0 0 0 127 0" result="hardAlpha"/>
<feMorphology radius="2" operator="erode" in="SourceAlpha" result="effect2_innerShadow_5427_1829"/>
<feOffset/>
<feComposite in2="hardAlpha" operator="arithmetic" k2="-1" k3="1"/>
<feColorMatrix type="matrix" values="0 0 0 0 1 0 0 0 0 1 0 0 0 0 1 0 0 0 0.12 0"/>
<feBlend mode="normal" in2="shape" result="effect2_innerShadow_5427_1829"/>
</filter>
<linearGradient id="paint0_linear_5427_1829" x1="75" y1="0" x2="75" y2="90" gradientUnits="userSpaceOnUse">
<stop stop-color="#F6F0FF"/>
<stop offset="1" stop-color="white"/>
</linearGradient>
<linearGradient id="paint1_linear_5427_1829" x1="16" y1="1" x2="32.149" y2="50.6891" gradientUnits="userSpaceOnUse">
<stop stop-color="#8040BF"/>
<stop offset="1" stop-color="white" stop-opacity="0.02"/>
</linearGradient>
<linearGradient id="paint2_linear_5427_1829" x1="76.3243" y1="13.0536" x2="76.5633" y2="91.0013" gradientUnits="userSpaceOnUse">
<stop stop-color="white"/>
<stop offset="1" stop-color="white" stop-opacity="0.02"/>
</linearGradient>
<clipPath id="clip0_5427_1829">
<path d="M2 11C2 5.47715 6.47715 1 12 1H142C147.523 1 152 5.47715 152 11V81C152 86.5229 147.523 91 142 91H12C6.47715 91 2 86.5229 2 81V11Z" fill="white"/>
</clipPath>
<clipPath id="clip1_5427_1829">
<rect width="150" height="90" fill="white" transform="translate(2 1)"/>
</clipPath>
</defs>
</svg>
