<svg width="1440" height="780" viewBox="0 0 1440 780" fill="none" xmlns="http://www.w3.org/2000/svg">
<g clip-path="url(#clip0_7_11424)">
<rect width="1440" height="780" fill="url(#paint0_radial_7_11424)"/>
<rect width="1440" height="780" fill="url(#paint1_radial_7_11424)"/>
<mask id="mask0_7_11424" style="mask-type:alpha" maskUnits="userSpaceOnUse" x="0" y="0" width="1440" height="780">
<rect width="1440" height="780" fill="url(#paint2_radial_7_11424)"/>
</mask>
<g mask="url(#mask0_7_11424)">
<path d="M20.8392 1248.98C24.3973 1007.93 16.0882 766.806 18.7002 525.74C19.8725 417.23 23.1839 308.617 22.8959 200.108C22.5257 69.6083 13.8052 -60.4593 20.7981 -190.938M41.4065 1248.98C47.2887 1006.66 29.3952 764.276 36.5732 521.79C39.7611 414 47.227 305.758 46.3837 197.927C45.3759 67.6952 28.1612 -60.665 41.3242 -190.918M61.9737 1248.98C69.1722 1004.95 40.0902 761.663 53.8908 517.223C59.917 410.339 72.2985 302.343 70.6942 195.274C68.7403 65.0622 43.0107 -60.4798 61.8709 -190.918M82.541 1248.98C86.5104 1119.38 68.7198 991.066 64.195 861.759C60.1226 745.556 60.1021 627.975 70.7148 512.122C80.3814 406.328 98.2955 298.6 95.7246 192.25C92.5572 61.7298 58.1893 -59.7804 82.397 -190.897M103.108 1248.98C106.81 1118.09 83.3636 989.379 76.453 859.044C70.2417 742.101 71.4346 622.73 87.0657 506.568C101.134 402.069 125.053 294.712 121.331 188.938C116.744 57.7597 73.5531 -58.505 102.944 -190.876M123.675 1248.98C126.719 1116.55 97.2671 987.466 87.5594 855.938C78.88 738.295 81.4509 616.764 103.026 500.623C122.174 397.565 152.49 290.927 147.492 185.379C144.839 129.366 129.619 75.8618 118.842 21.1441C104.445 -51.9225 104.877 -118.489 123.47 -190.897M144.243 1248.98C146.258 1114.78 110.533 985.347 97.699 852.523C86.2636 734.222 90.2537 610.12 118.636 494.431C143.523 392.998 180.523 287.492 174.086 181.738C170.692 126.157 152.696 74.1956 139.738 20.4859C122.051 -52.8893 122.976 -118.16 144.016 -190.876M164.81 1248.98C165.571 1106.82 119.171 971.627 105.062 831.13C93.6678 717.601 99.8586 597.222 133.918 488.013C164.419 390.159 207.61 288.088 201.564 183.466C198.191 125.293 175.711 72.4265 159.977 17.0918C139.348 -55.44 141.487 -118.941 164.563 -190.835M185.377 1248.98C184.472 1104.57 130.895 969.241 113.31 827.098C99.2004 713.035 107.201 589.159 148.953 481.534C186.138 385.695 236.343 285.784 228.795 179.805C224.661 121.775 199.137 70.7603 181.038 16.4952C156.809 -56.1394 159.812 -118.653 185.089 -190.835M205.944 1248.98C203.168 1102.19 142.33 966.752 121.084 822.902C104.157 708.365 113.927 580.457 163.802 475.054C208.022 381.602 265.363 284.2 256.19 176.328C251.254 118.299 222.707 69.2175 202.201 16.0221C174.209 -56.5919 178.261 -118.304 205.656 -190.815M226.491 1248.98C221.699 1099.7 153.601 964.221 128.55 818.623C108.764 703.654 120.241 571.242 178.467 468.677C229.946 378.043 294.507 283.357 283.606 173.099C277.848 114.905 246.277 67.7982 223.365 15.6724C191.486 -56.8182 196.73 -117.933 226.183 -190.774M247.058 1248.98C240.333 1099.27 167.052 965.373 137.147 820.433C113.001 703.449 124.663 563.384 193.09 462.547C253.043 374.196 326.325 279.181 310.262 164.583C302.281 107.602 267.79 63.3138 243.253 13.06C208.392 -58.3198 215.755 -118.88 246.729 -190.774M267.626 1248.98C258.782 1096.72 178.528 962.761 144.736 816.175C117.69 698.882 130.545 553.386 207.631 456.602C274.804 372.283 355.756 279.695 337.41 162.094C328.464 104.763 291.031 62.4087 264.191 13.1423C225.442 -58.0113 234.389 -118.55 267.255 -190.774M288.193 1248.98C277.272 1094.14 190.169 960.189 152.552 811.999C122.709 694.418 136.592 543.265 222.172 451.048C296.235 371.234 384.982 281.032 364.312 160.139C354.419 102.336 314.087 61.8528 285.026 13.5326C242.369 -57.3741 253.064 -118.119 287.823 -190.733M308.74 1248.98C296.152 1093.88 204.752 961.218 162.506 814.097C128.118 694.315 141.487 535.304 236.672 445.843C317.81 369.588 417.355 279.798 389.754 153.412C377.372 96.7199 334.407 58.8083 304.112 12.0103C258.823 -57.9295 272.315 -119.045 308.328 -190.712M329.307 1248.98C314.992 1091.47 217.256 958.79 171.494 810.291C134.556 690.406 148.274 525.348 251.357 441.256C338.439 370.246 446.108 282.739 415.813 152.713C402.464 95.4034 356.744 59.1375 324.432 13.08C275.441 -56.757 291.052 -118.592 328.875 -190.712M349.874 1248.98C334.449 1091.55 233.073 959.798 183.259 812.822C142.433 692.361 153.333 516.297 266.227 437.389C305.901 409.66 347.714 388.534 379.532 350.869C422.476 300.039 456.083 225.718 442.159 158.246C430.292 100.731 384.921 64.1361 349.627 20.65C292.389 -49.8247 307.876 -114.725 349.422 -190.712M370.441 1248.98C353.926 1089.47 246.812 957.638 194.057 809.613C151.318 689.686 161.375 506.814 281.262 434.159C323.157 408.775 367.212 390.632 400.778 353.44C445.944 303.392 481.792 227.734 467.107 159.254C454.602 100.875 406.722 65.3703 369.619 22.5425C308.575 -47.8911 326.489 -114.025 369.968 -190.671M391.009 1248.98C373.732 1085.3 258.165 952.352 203.867 800.706C161.601 682.651 172.687 496.92 296.481 431.67C339.405 409.042 384.365 394.417 419.679 359.323C467.046 312.258 505.116 234.234 492.796 166.248C481.422 103.426 427.289 67.2217 387.286 22.8511C324.144 -47.1711 345.925 -114.889 390.494 -190.651M411.576 1248.98C394.176 1083.59 273.302 950.665 216.948 798.258C173.757 681.479 182.827 488.671 312.03 430.168C356.6 409.989 402.855 398.366 439.774 364.075C488.97 318.409 529.138 237.649 516.242 169.313C504.149 105.236 448.124 70.0398 406.352 25.8132C339.776 -44.6821 364.559 -114.149 411.02 -190.63M432.143 1248.98C415.607 1084.52 292.656 952.455 233.813 802.29C188.73 687.259 191.383 481.615 328.011 429.736C373.238 412.56 419.35 403.674 457.276 371.398C511.245 325.464 553.737 239.459 537.632 167.935C524.223 108.383 471.344 75.2237 430.642 35.1934C355.941 -38.3052 380.046 -108.512 431.547 -190.609M452.731 1248.98C437.388 1083.43 309.912 951.323 250.061 800.87C205.43 688.678 203.908 474.56 344.341 430.312C390.453 415.79 437.1 409.927 476.075 378.68C531.565 334.186 575.579 244.869 559.166 173.283C545.222 112.395 491.048 79.7492 448.905 39.4515C370.914 -35.1373 398.516 -107.504 452.114 -190.568M473.298 1248.98C459.929 1080.65 324.741 946.921 265.466 793.917C223.118 684.626 220.485 468.039 361.042 431.958C406.619 420.253 452.69 417.949 492.22 389.254C549.87 347.392 591.436 256.574 580.145 185.729C569.491 118.833 509.25 85.2003 464.269 42.393C385.25 -32.8334 418.486 -108.965 472.64 -190.548M493.865 1248.98C481.607 1080.24 343.807 947.826 284.882 794.658C242.595 684.708 243.788 471.001 385.661 438.5C431.32 428.029 477.926 427.227 518.032 399.786C577.554 359.035 615.747 268.69 604.311 197.845C593.308 129.633 533.067 93.4286 487.387 48.9756C408.121 -28.1639 439.342 -106.373 493.207 -190.527M514.433 1248.96C502.421 1082.36 366.41 953.833 306.724 803.441C261.826 690.303 268.757 479.044 413.735 445.658C460.402 434.92 508.694 433.706 549.5 405.648C610.255 363.89 645.713 274.223 629.877 202.247C615.747 137.984 559.619 99.6614 515.584 56.237C435.228 -23.0007 460.259 -101.374 513.795 -190.568M535 1248.96C523.112 1082.83 385.229 957.33 325.728 807.7C278.876 689.851 296.975 487.601 441.46 451.274C488.312 439.507 537.571 437.409 578.829 409.577C640.304 368.107 672.183 280.456 655.853 208.582C641.106 143.703 585.513 103.94 541.396 59.1786C462.418 -20.9436 482.615 -99.0706 534.383 -190.548M555.567 1248.96C543.371 1081.31 400.161 958.975 342.223 807.432C295.35 684.832 328.587 495.994 468.917 455.326C516.572 441.523 568.072 438.294 609.947 409.001C668.379 368.128 696.432 286.586 682.981 217.428C669.037 145.781 607.438 103.734 560.976 53.3777C488.724 -24.9343 507.748 -102.053 554.991 -190.548M576.134 1248.96C563.876 1084.89 422.579 967.06 362.975 820.289C310.899 692.031 355.489 505.148 496.169 458.35C545.098 442.079 598.1 435.928 640.633 404.537C698.9 361.545 723.725 280.477 706.778 210.866C690.365 143.477 633.743 102.912 588.783 54.7148C515.852 -23.4944 529.652 -99.482 575.579 -190.548M596.702 1248.96C584.3 1086.35 441.069 973.066 381.424 828.229C326.571 695.014 385.394 513.5 523.174 460.057C572.391 440.968 626.401 431.773 669.181 398.963C726.358 355.106 749.804 276.362 732.137 207.04C715.128 140.309 659.103 99.8672 614.266 52.0201C542.322 -24.7698 552.626 -99.3997 596.187 -190.568M617.269 1248.96C604.27 1085.42 455.425 977.509 397.343 831.335C342.717 693.821 418.178 520.74 549.891 460.592C600.013 437.697 656.367 425.54 699.558 389.459C755.193 342.99 777.426 263.732 755.933 194.327C735.613 128.666 677.325 89.6024 633.064 41.2411C566.139 -31.8872 578.15 -105.118 616.775 -190.568M637.836 1248.96C624.57 1087.29 473.709 984.853 415.525 841.106C358.245 699.581 448.617 527.282 576.443 460.304C626.894 433.871 684.215 417.497 727.55 378.989C781.19 331.327 803.073 254.578 780.758 185.605C759.944 121.281 702.397 83.1433 658.321 35.9956C592.218 -34.7259 601.165 -105.962 637.404 -190.568M658.403 1248.96C644.397 1086.8 487.469 990.695 431.3 845.837C375.665 702.337 480.99 531.17 602.748 459.276C708.855 396.618 853.278 335.647 807.166 180.709C787.874 115.871 730.471 77.8772 685.573 31.8609C618.709 -36.639 623.604 -105.571 657.971 -190.63M678.971 1248.98C664.615 1088.9 505.609 999.026 449.317 856.843C417.993 777.728 448.494 685.161 485.124 612.711C518.196 547.318 568.401 497.599 628.869 457.404C730.841 389.583 879.419 320.342 831.538 168.182C811.732 105.215 755.131 68.785 710.562 24.6407C644.582 -40.712 646.762 -107.134 678.58 -190.63M699.538 1248.98C684.771 1090.85 523.482 1007.81 467.292 868.156C435.29 788.631 469.884 695.179 506.679 622.873C541.561 554.291 593.493 500.355 654.804 454.915C752.54 382.486 905.251 303.639 855.623 154.297C835.385 93.408 779.544 58.7261 735.386 16.6593C670.353 -45.2992 669.921 -109.006 699.188 -190.671M720.105 1248.98C704.474 1090.46 536.542 1015.13 483.047 874.245C456.33 803.873 488.333 719.308 517.703 654.593C554.539 573.442 611.921 507.617 680.534 451.767C773.127 376.397 926.024 289.816 881.27 144.958C862.492 84.1718 807.002 50.3538 762.289 10.159C696.823 -48.6933 692.668 -109.418 719.776 -190.712M740.672 1248.98C724.548 1091.86 553.181 1025.03 501.002 885.868C474.409 814.961 508.962 730.128 538.661 665.331C577.553 580.457 636.828 510.023 706.119 448.373C794.25 369.958 952.083 271.22 904.84 129.221C885.178 70.1427 830.675 40.1715 786.805 1.23141C723.231 -55.1936 715.539 -110.446 740.384 -190.733M761.24 1248.98C744.683 1093.69 571.28 1033.91 518.978 897.325C491.891 826.583 529.961 739.981 559.578 675.842C600.527 587.142 661.612 512.101 731.52 444.691C815.619 363.602 977.607 252.645 928.102 113.156C907.987 56.4839 854.45 28.6108 811.156 -7.86078C748.714 -60.4802 738.842 -112.791 760.972 -190.753M781.807 1249C765.353 1102.13 605.196 1045.56 543.906 923.142C503.45 842.32 551.022 745.515 587.529 671.317C630.123 584.736 690.18 510.168 756.735 440.968C838.243 356.238 1006.85 230.676 948.833 92.6885C927.485 41.9204 878.699 17.1535 837.585 -15.2657C775.081 -64.5527 761.836 -113.593 781.56 -190.794M802.374 1249C785.55 1103.5 623.686 1053.35 561.984 933.386C520.623 852.976 572.556 754.011 608.713 680.636C653.2 590.372 714.737 511.422 781.848 437.06C859.86 350.602 1031.95 212.738 971.478 77.2812C949.841 28.7758 902.043 5.92197 861.587 -24.2344C800.4 -69.8393 785.2 -116 802.168 -190.815M822.941 1249C805.788 1104.64 642.279 1060.76 580.165 943.013C538.023 863.117 594.131 761.931 629.938 689.46C676.297 595.659 739.212 512.492 806.837 433.193C881.681 345.398 1056.75 195.726 993.835 62.5732C971.951 16.2895 925.202 -4.79532 885.466 -32.833C825.677 -75.0026 808.647 -118.365 822.797 -190.835M843.509 1249C826.068 1105.48 660.954 1067.69 598.45 951.879C555.649 872.559 615.747 769.192 651.205 697.689C699.394 600.555 763.605 513.418 831.662 429.49C903.729 340.605 1081.16 179.99 1015.8 48.9144C993.752 4.70826 948.093 -14.772 909.077 -40.8555C850.728 -79.8778 832.012 -120.649 843.344 -190.856M864.076 1249C846.409 1105.99 679.732 1074.01 616.878 959.799C573.543 881.075 637.404 775.713 672.554 705.218C722.532 605.019 787.936 514.241 856.384 426.034C926.086 336.244 1105.17 165.899 1037.46 36.6337C1015.31 -5.65932 970.799 -23.7614 932.544 -48.1581C875.655 -84.4239 855.417 -122.85 863.932 -190.918M884.643 1249C866.832 1106.14 698.633 1079.62 635.491 966.669C591.827 888.542 659.123 781.473 694.026 712.006C745.732 609.071 812.226 515.022 881.023 423.01C935.835 349.717 996.405 277.885 1038.92 196.364C1065.59 145.226 1088.75 80.9632 1058.81 26.1427C1036.63 -14.4224 993.341 -31.4753 955.867 -54.4526C900.439 -88.4352 878.884 -124.866 884.561 -190.918M905.21 1249C887.337 1105.91 717.637 1084.44 654.269 972.285C610.441 894.693 680.863 786.348 715.601 717.889C768.993 612.671 836.475 515.804 905.539 420.46C960.495 344.616 1021.11 269.821 1063.04 185.606C1088.36 134.755 1110 71.2745 1079.74 17.7294C1057.65 -21.3547 1015.62 -37.6877 978.923 -59.6159C924.914 -91.8705 902.269 -126.717 905.128 -190.918M925.778 1249C907.966 1105.25 736.785 1088.36 673.294 976.522C629.486 899.383 702.685 790.297 737.382 722.826C792.399 615.797 860.744 516.627 930.035 418.526C985.032 340.646 1045.64 263.445 1086.92 177.007C1111.07 126.404 1130.69 64.116 1100.41 11.7228C1078.53 -26.1887 1037.81 -42.2132 1001.88 -63.4831C949.224 -94.6475 925.716 -128.404 925.757 -190.918M946.345 1248.98C928.698 1104.12 756.036 1091.24 692.524 979.217C648.963 902.366 724.486 793.239 759.286 726.693C815.866 618.43 884.952 517.552 954.387 417.292C1009.32 337.992 1069.87 258.96 1110.39 170.898C1133.57 120.479 1150.58 59.899 1120.63 8.47261C1099.04 -28.5749 1059.71 -44.7845 1024.54 -65.8693C973.185 -96.6429 949.039 -129.885 946.304 -190.938M966.912 1248.98C948.587 1103.85 776.624 1092.09 713.051 979.814C669.489 902.88 745.794 795.275 780.902 728.997C838.367 620.529 907.617 519.034 976.826 417.868C1031.6 337.807 1091.86 257.849 1131.98 169.026C1154.86 118.422 1170.24 59.5904 1140.44 8.39033C1119.13 -28.2047 1081 -45.1342 1046.47 -66.5482C996.323 -97.6714 971.725 -130.955 966.912 -190.959M987.479 1248.98C966.83 1105.73 800.029 1089.37 736.394 977.243C692.278 899.506 766.279 795.79 801.983 728.462C858.852 621.249 926.991 520.72 995.089 420.46C1049.47 340.378 1108.81 260.462 1149.2 172.029C1172.69 120.582 1189.1 63.0051 1158.93 10.7559C1137.85 -25.7568 1100.52 -43.7354 1066.56 -65.9722C1017.69 -98.0005 993.033 -131.654 987.521 -190.959M1008.03 1248.98C985.525 1107.04 823.908 1085.05 760.623 972.285C716.444 893.582 787.319 794.329 823.702 725.768C879.625 620.385 946.345 521.358 1012.96 422.578C1066.6 343.053 1124.72 263.732 1165 176.246C1188.98 124.141 1205.76 68.0038 1175.81 14.8083C1155.21 -21.7867 1118.95 -41.1436 1085.75 -64.4911C1038.36 -97.8566 1013.99 -132.271 1008.07 -190.979M1028.59 1248.98C1004.69 1107.89 848.28 1079.29 785.776 965.27C742.03 885.477 808.997 791.161 846.1 721.221C900.768 618.163 965.74 521.152 1030.59 424.347C1083.14 345.891 1139.8 267.641 1179.62 181.635C1203.97 129.016 1220.53 74.4629 1191.36 20.4241C1171.47 -16.4383 1136.47 -37.4203 1104.24 -62.1461C1058.54 -97.2189 1034.76 -132.724 1028.63 -190.959M1049.14 1248.98C1024.25 1108.34 873.126 1072.3 811.773 956.487C768.911 875.562 831.353 786.451 869.135 715.112C922.261 614.789 985.196 520.247 1047.99 425.828C1099.18 348.874 1154.12 272.146 1193.15 188.012C1217.75 135.002 1233.57 82.1357 1205.68 27.3769C1186.69 -9.89691 1153.11 -32.7508 1122.05 -59.0811C1078.28 -96.1698 1055.31 -133.094 1049.2 -190.979M1069.71 1248.96C1044.24 1108.44 898.464 1064.26 838.655 946.222C797.109 864.228 854.471 780.403 892.87 707.686C944.185 610.49 1004.82 518.746 1065.29 427.124C1114.83 352.042 1167.79 277.186 1205.78 195.315C1230.48 142.078 1245.15 90.8988 1218.92 35.5434C1200.99 -2.30637 1168.99 -27.2379 1139.29 -55.3578C1097.7 -94.7298 1075.67 -133.279 1069.79 -190.979M1090.27 1248.96C1064.57 1108.26 924.338 1055.39 866.359 934.846C826.479 851.927 878.411 773.306 917.304 699.293C966.562 605.533 1024.64 516.894 1082.54 428.338C1130.2 355.457 1181 282.74 1217.63 203.44C1242.27 150.101 1255.49 100.526 1231.22 44.7385C1214.46 6.18927 1184.16 -21.005 1155.99 -51.0791C1116.83 -92.8785 1095.85 -133.341 1090.34 -190.979M1110.84 1248.96C1085.19 1107.82 950.705 1045.91 894.865 922.648C856.98 839.029 903.236 765.325 942.396 690.222C989.372 600.123 1044.7 514.837 1099.8 429.593C1164.54 329.455 1293.13 182.746 1242.74 54.8386C1227.21 15.4254 1198.75 -14.155 1172.28 -46.3068C1135.75 -90.6569 1115.94 -133.197 1110.9 -190.979M1131.39 1248.94C1106.07 1107.17 977.586 1035.99 924.132 909.915C888.489 825.843 928.966 756.685 968.167 680.739C1012.67 594.486 1065.04 512.698 1117.16 430.95C1181.51 329.99 1298.6 193.381 1253.6 65.6587C1239.37 25.2582 1212.83 -6.83188 1188.22 -41.123C1154.51 -88.065 1135.93 -132.847 1131.47 -190.938M1151.96 1248.94C1127.21 1106.51 1005.58 1025.67 954.16 896.976C920.636 813.048 955.868 747.346 994.637 671.153C1036.51 588.85 1085.75 510.682 1134.7 432.493C1198.29 330.916 1303.5 204.098 1263.99 76.9931C1251.09 35.4612 1226.57 0.820375 1203.89 -35.6923C1173.12 -85.2056 1155.84 -132.394 1152.04 -190.959M1172.52 1248.92C1148.54 1105.6 1033.84 1015.57 984.908 884.12C953.811 800.562 983.715 737.987 1021.79 661.711C1060.86 583.419 1106.83 508.892 1152.47 434.324C1214.87 332.356 1308.1 214.672 1274.02 88.7183C1246.94 -11.3985 1178.32 -82.7372 1172.58 -190.959M1193.09 1248.9C1170.03 1104.57 1062.28 1005.96 1016.38 871.654C1006.5 842.773 997.352 808.009 1000.29 777.153C1004.3 735.271 1031.55 689.892 1049.63 652.742C1085.81 578.421 1128.36 507.514 1170.57 436.525C1231.26 334.392 1312.69 224.936 1283.85 100.629C1260.02 -2.08011 1197.55 -81.9555 1193.15 -191M1213.66 1248.9C1191.71 1103.61 1091.26 996.908 1048.5 859.949C1039.21 830.163 1030.16 794.576 1033.02 763.083C1036.64 723.093 1061.38 680.307 1078.2 644.596C1111.36 574.163 1150.43 506.794 1189.08 439.282C1247.49 337.252 1317.56 234.79 1293.66 112.683C1273.01 7.17667 1216.82 -80.639 1213.74 -190.959M1234.22 1248.9C1213.53 1102.74 1120.78 988.597 1081.29 849.273C1072.61 818.623 1063.8 782.398 1066.56 750.267C1069.81 712.129 1091.98 671.831 1107.47 637.479C1137.54 570.768 1173.04 506.773 1208.04 442.593C1263.51 340.913 1322.91 244.046 1303.54 124.593C1285.95 16.166 1236.12 -78.9316 1234.29 -190.938M1254.81 1248.88C1235.52 1102.04 1150.82 981.233 1114.71 839.913C1106.67 808.44 1098.28 771.804 1100.87 739.097C1103.75 702.728 1123.33 664.796 1137.44 631.698C1164.36 568.506 1196.24 507.637 1227.56 446.564C1279.41 345.439 1328.98 252.666 1313.68 136.216C1299.05 24.7645 1255.49 -76.9363 1254.85 -190.959M1275.38 1248.88C1257.63 1101.65 1181.31 975.103 1148.73 832.22C1131.26 755.677 1139.47 699.931 1168.1 627.584C1191.86 567.601 1220.07 509.592 1247.68 451.315C1295.25 350.869 1335.89 260.585 1324.19 147.406C1312.34 32.9104 1274.93 -74.6736 1275.42 -190.959M1295.95 1248.88C1279.9 1101.67 1212.26 970.372 1183.32 826.481C1168.39 752.304 1174.02 696.146 1199.51 625.404C1220.09 568.279 1244.63 512.739 1268.49 456.952C1311.13 357.246 1343.89 267.867 1335.23 158.021C1325.98 40.5216 1294.53 -72.2668 1295.97 -190.938M1316.51 1248.88C1302.3 1102.17 1243.64 967.266 1218.45 823.005C1205.92 751.357 1209.61 694.459 1231.59 625.445C1249.01 570.748 1269.91 517.265 1290.04 463.534C1327.17 364.487 1353.06 274.553 1346.95 167.853C1340.06 47.495 1314.29 -69.8394 1316.53 -190.938M1337.08 1248.88C1324.84 1103.3 1275.44 965.99 1254.11 822.12C1243.87 753.003 1246.26 695.261 1264.42 627.996C1278.67 575.191 1295.99 523.312 1312.46 471.166C1343.64 372.51 1363.57 280.765 1359.52 176.76C1354.73 53.7278 1334.3 -67.4739 1337.1 -190.959M1357.67 1248.9C1347.57 1105.15 1307.63 966.793 1290.31 824.136C1275.61 703.016 1306.42 596.44 1335.83 479.991C1360.77 381.17 1375.54 286.792 1373.09 184.598C1370.09 59.1585 1354.63 -65.2728 1357.69 -190.938M1378.24 1248.92C1370.4 1107.82 1340.17 969.816 1326.94 829.361C1315.94 712.397 1338.79 604.463 1360.14 490.05C1402.67 261.943 1372.83 39.061 1378.24 -190.918M1398.8 1248.92C1393.39 1111.4 1373.01 975.288 1364.05 838.062C1356.6 724.142 1371.9 614.275 1385.52 501.425C1413.39 270.295 1394.28 40.9535 1398.82 -190.959M1419.39 1248.96C1416.57 1116.03 1406.19 983.475 1401.6 850.61C1397.69 738.11 1405.55 626.535 1412.05 514.261C1425.66 279.14 1416.57 44.3476 1419.39 -190.959M0.230826 -170.368C236.405 -163.189 473.257 -149.201 709.369 -161.173C953.276 -173.515 1195.95 -167.118 1439.96 -170.389M0.210258 -149.798C233.998 -137.085 469.617 -112.729 703.137 -134.514C819.568 -145.375 935.136 -155.825 1052.2 -155.249C1181.51 -154.611 1310.61 -147 1439.96 -149.818M0.189691 -129.206C113.762 -121.06 227.807 -118.674 341.112 -106.887C463.878 -94.1131 577.862 -94.3188 700.71 -110.446C819.548 -126.039 936.658 -141.487 1056.83 -139.821C1184.7 -138.052 1311.97 -125.853 1439.96 -129.227M0.169124 -108.636C112.302 -99.4203 225.195 -98.0215 336.896 -83.9718C396.685 -76.4636 453.574 -65.664 514.309 -67.4536C577.265 -69.3256 639.667 -78.3972 701.718 -88.703C822.221 -108.698 940.031 -129.062 1062.71 -125.812C1188.77 -122.459 1313.61 -105.201 1439.96 -108.656M0.169124 -88.0653C112.117 -78.5 225.093 -78.7469 336.485 -63.1338C396.747 -54.6793 453.348 -41.617 514.844 -43.5301C579.199 -45.5255 642.772 -56.5307 705.79 -69.0376C827.281 -93.1463 945.049 -118.427 1069.73 -113.059C1193.69 -107.71 1315.44 -84.918 1439.94 -88.0653M0.169124 -67.4948C113.063 -58.2175 227.211 -60.6859 339.426 -44.1061C400.223 -35.1168 456.824 -19.7917 519.101 -21.7253C584.546 -23.7618 648.963 -36.5773 712.578 -51.1823C834.377 -79.1172 951.61 -109.397 1077.73 -101.416C1199.36 -93.7222 1317.4 -64.9852 1439.94 -67.5154M0.169124 -46.9242C114.955 -38.4903 231.18 -43.6535 345.267 -26.6211C406.66 -17.4467 463.59 0.141154 526.567 -1.73077C592.835 -3.68497 657.786 -18.29 721.709 -34.8699C843.241 -66.4045 959.487 -101.724 1086.57 -90.6984C1205.74 -80.3514 1319.35 -45.3197 1439.96 -46.9654M0.189691 -26.3537C117.711 -19.2363 236.775 -27.4645 353.597 -10.4115C415.628 -1.36049 473.134 18.5107 536.769 16.7827C603.633 14.9519 668.893 -1.31935 732.795 -19.8123C853.484 -54.6999 968.537 -95.2239 1096.07 -80.7216C1212.67 -67.4536 1321.22 -25.8394 1439.94 -26.3743M0.189691 -5.80373C121.125 -0.393672 243.603 -11.9749 363.901 4.76953C426.652 13.4914 484.919 35.6459 549.171 34.0826C616.426 32.4575 681.788 14.52 745.485 -5.78317C864.796 -43.7975 978.574 -89.711 1106.13 -71.362C1220.14 -54.9468 1322.91 -6.54426 1439.96 -5.8243M0.210258 14.7668C125.074 18.161 251.46 3.04162 375.789 19.1895C439.321 27.4383 498.431 51.8349 563.3 50.4979C630.823 49.1196 696.124 29.5571 759.389 7.50544C876.848 -33.4299 989.413 -84.9592 1116.58 -62.4344C1228.01 -42.7073 1324.35 12.6275 1439.96 14.7257M0.210258 35.3374C129.373 36.5305 259.995 17.7496 388.808 33.1363C453.204 40.8297 513.178 67.4274 578.685 66.3783C646.371 65.2881 711.487 44.1004 774.156 20.362C889.353 -23.2681 1000.87 -80.6599 1127.25 -53.7331C1236.2 -30.5295 1325.44 31.7581 1439.96 35.3374M0.230826 55.8874C133.98 54.756 268.901 32.5398 402.506 46.8363C467.868 53.8303 528.603 82.7319 594.789 81.9708C662.558 81.1685 727.427 58.3558 789.417 32.9718C902.022 -13.1268 1012.74 -76.6898 1138.05 -45.1963C1244.61 -18.4135 1326.18 50.7653 1439.98 55.8668M0.230826 76.4579C138.628 72.9814 277.93 47.3506 416.43 60.5774C482.862 66.9337 544.214 98.0775 611.119 97.6044C678.971 97.1107 743.552 72.6318 804.78 45.6432C914.527 -2.73872 1024.77 -72.7608 1148.77 -36.5773C1253.11 -6.13285 1326.49 69.793 1439.98 76.4373M0.251393 97.0079C143.173 91.2893 286.897 62.1614 430.169 74.6066C497.711 80.4692 559.557 113.793 627.223 113.588C695.178 113.403 759.471 87.2163 819.918 58.6232C926.621 8.1637 1036.76 -68.6467 1159.32 -27.7525C1261.56 6.35347 1326.45 88.8002 1440 97.0079M0.27196 117.578C147.492 109.823 295.453 77.3836 443.249 89.2116C511.923 94.704 574.119 130.188 642.546 130.27C710.685 130.353 774.752 102.397 834.397 72.2409C937.974 19.8889 1048.42 -64.0389 1169.48 -18.4958C1269.81 19.2512 1325.98 107.931 1439.98 117.599M0.27196 138.149C151.421 128.625 303.269 93.12 455.219 104.619C525.004 109.906 587.385 147.57 656.635 147.899C725.062 148.208 788.964 118.401 847.91 86.6609C948.34 32.5809 1059.55 -58.8346 1179.17 -8.72474C1277.7 32.5398 1325.19 127.123 1439.98 138.17M0.292527 158.72C154.835 147.817 310.138 109.576 465.668 121.117C536.501 126.383 598.964 166.31 668.975 166.804C737.834 167.297 801.737 135.536 860.065 102.212C957.472 46.5483 1069.89 -52.7045 1188.22 1.76626C1285.15 46.3838 1324.14 146.521 1439.98 158.74M0.292527 179.269C157.591 167.483 315.712 126.856 474.141 138.951C506.658 141.44 540.574 145.904 571.342 157.28C608.219 170.918 638.474 186.942 679.094 187.292C748.611 187.889 812.637 154.071 870.513 119.121C965.04 62.0174 1079.19 -45.4637 1196.5 13.1006C1292.04 60.7831 1322.85 166.125 1440 179.29M0.292527 199.84C159.504 187.765 319.764 145.205 480.168 158.39C512.952 161.085 547.114 165.96 577.944 178.015C615.068 192.496 645.179 209.344 686.436 209.693C756.818 210.31 821.193 174.333 878.802 137.696C970.758 79.2349 1087.13 -36.8241 1203.81 25.5047C1298.15 75.9025 1321.31 186.099 1439.98 199.861M0.292527 220.431C160.47 208.747 322.026 164.767 483.335 179.743C556.39 186.531 618.379 233.781 690.571 234.337C762.124 234.872 827.075 196.59 884.664 158.226C974.378 98.4478 1093.54 -26.5388 1210.06 39.1429C1303.52 91.8241 1319.6 206.525 1439.98 220.452M0.292527 241.002C160.306 230.531 322.211 185.667 483.191 203.193C556.575 211.174 618.03 261.12 690.982 261.449C764.016 261.778 829.831 221.089 887.708 180.874C975.633 119.779 1098.19 -14.464 1215.1 54.0977C1308 108.589 1317.73 227.384 1439.98 241.002M0.27196 261.572C158.866 253.241 320.072 208.109 479.263 229.03C552.791 238.698 613.217 291.4 687.156 291.379C762.021 291.379 829.029 248.119 887.522 205.97C974.213 143.477 1100.72 -0.290798 1218.74 70.5747C1311.52 126.3 1315.63 248.818 1439.98 261.552M0.27196 282.163C156.028 277.021 315.383 232.28 471.159 257.561C544.728 269.512 603.304 324.991 678.621 324.498C755.728 323.983 824.278 278.07 883.759 233.823C969.853 169.766 1100.93 16.2891 1220.86 88.8002C1314.03 145.122 1313.35 270.932 1439.96 282.163M0.251393 302.734C151.853 301.623 307.485 259.083 458.51 286.997C531.75 300.533 589.585 354.736 666.096 352.515C744.683 350.231 814.529 304.03 875.676 259.104C962.47 195.356 1098.87 37.6824 1218.94 109.762C1258.43 133.479 1279.49 174.908 1304.67 211.73C1340.08 263.547 1376.2 294.238 1439.96 302.693M0.251393 323.325C147.328 324.806 298.333 284.323 444.545 312.464C517.559 326.513 575.085 377.364 652.192 373.558C731.355 369.67 802.066 325.012 864.94 280.744C953.667 218.251 1093.63 62.6139 1213.27 132.657C1252.06 155.367 1274.56 194.43 1300.7 229.441C1338.4 279.942 1377.11 310.633 1439.96 323.222M0.251393 343.896C142.577 346.446 288.522 307.033 429.983 334.104C502.73 348.03 559.948 395.486 637.137 390.858C716.424 386.106 787.833 343.731 852.229 300.759C943.897 239.582 1085.09 89.8287 1205 156.806C1243.44 178.282 1267.83 214.774 1295.33 247.831C1335.95 296.666 1377.85 327.501 1439.98 343.752M0.251393 364.466C137.702 366.832 278.177 327.542 414.908 352.391C487.222 365.536 544.42 409.639 621.033 404.908C700.073 400.012 771.996 360.496 837.709 319.458C933.161 259.844 1073.49 119.224 1194.28 182.252C1232.7 202.308 1259.42 236.003 1288.62 266.941C1332.74 313.677 1378.24 344.842 1439.96 364.322M0.251393 385.037C132.643 386.209 267.523 345.85 399.441 367.778C470.995 379.668 528.665 420.418 604.085 416.139C682.529 411.696 754.781 375.554 821.604 337.046C921.561 279.448 1059.18 150.635 1181.37 208.891C1220.12 227.363 1249.53 258.034 1280.71 286.668C1328.79 330.833 1378.26 362.533 1439.94 384.831M0.230826 405.587C127.542 404.784 256.478 362.553 383.666 380.696C454.212 390.776 512.705 428.338 586.397 425.026C663.957 421.529 736.353 389.233 804.061 353.79C909.056 298.846 1042.46 183.939 1166.41 236.682C1205.86 253.467 1238.28 280.847 1271.7 307.033C1324.19 348.174 1377.8 380.491 1439.9 405.36M0.230826 426.157C127.069 422.742 256.252 373.641 383.214 393.635C443.476 403.118 494.236 431.835 556.904 432.225C637.137 432.719 713.791 403.591 785.406 370.082C893.549 319.499 1021.79 219.979 1145.97 264.144C1188.77 279.366 1226.14 304.606 1263.8 329.414C1320.34 366.647 1377.62 399.025 1439.88 425.931M0.230826 446.707C122.071 440.289 244.117 388.163 366.677 402.378C425.808 409.228 477.741 436.113 538.393 437.656C617.207 439.631 693.512 415.275 765.703 385.983C879.028 339.987 1001.88 256.368 1127.54 294.341C1237.49 327.563 1335.89 398.839 1439.88 446.44M0.230826 467.278C117.258 457.63 231.962 401.946 350.183 410.03C408.162 414 461.019 439.302 519.657 442.14C596.887 445.884 672.636 426.527 745.156 401.843C863.13 361.689 980.939 294.218 1107.69 325.608C1224.6 354.551 1331.96 415.44 1439.86 467.01M0.230826 487.828C111.459 475.115 216.763 417.127 329.183 417.003C393.929 416.921 453.944 444.794 518.937 447.139C588.557 449.649 657.108 435.928 723.972 417.867C788.759 400.362 852.188 377.899 917.51 362.286C979.396 347.475 1029.35 346.611 1091.1 358.706C1214.69 382.918 1327.29 431.999 1439.86 487.54M0.210258 508.378C107.345 492.538 205.081 430.456 313.264 424.079C377.126 420.315 436.586 447.18 499.974 451.706C567.99 456.54 635.738 447.633 702.335 434.426C766.484 421.714 829.667 404.435 894.042 392.751C955.724 381.56 1007.88 383.165 1069.21 391.701C1202.1 410.215 1319.46 447.345 1439.77 508.09M0.210258 528.948C103.725 510.188 193.707 444.012 297.757 431.506C360.939 423.915 419.042 450.06 481.278 456.807C547.69 464.007 614.431 459.934 680.513 451.726C743.84 443.889 806.59 431.938 869.938 424.182C931.043 416.715 985.916 420.459 1046.63 425.581C1100.31 430.127 1154.09 432.349 1207.18 442.346C1289.63 457.877 1365.46 490.502 1439.77 528.619M0.210258 549.498C99.5501 528.372 180.235 460.181 278.711 440.474C339.714 428.276 392.962 451.623 452.69 461.292C520.788 472.297 589.894 473.387 658.671 470.096C724.116 466.969 789.293 459.872 854.697 456.108C913.437 452.734 969.894 458.864 1028.37 460.469C1084.74 462.012 1141.03 459.543 1197.18 466.496C1283.92 477.234 1362.67 509.2 1439.73 549.19M0.210258 570.048C97.082 546.68 169.808 475.136 264.438 450.122C324.885 434.159 375.83 456.663 435.084 468.409C501.599 481.615 569.244 487.54 636.952 489.617C701.224 491.592 765.518 490.132 829.79 490.193C888.325 490.234 946.633 497.187 1005.08 495.727C1064.87 494.246 1124.25 486.779 1184.16 490.481C1276.12 496.159 1358.72 527.405 1439.71 569.698M0.210258 590.619C94.1409 565.811 157.899 493.526 247.326 462.69C305.243 442.716 351.355 461.312 408.635 475.197C476.712 491.716 545.962 503.009 615.582 510.682C732.425 523.559 859.14 540.344 976.538 532.095C1038.28 527.755 1099.18 515.762 1161.21 515.084C1261.74 514.014 1351.36 543.924 1439.71 590.248M0.210258 611.189C92.7629 585.209 148.706 511.093 234.697 476.39C291.545 453.454 336.135 470.857 392.819 486.429C459.477 504.737 526.814 520.638 594.727 533.577C708.834 555.32 836.639 582.74 952.926 569.122C1018.15 561.491 1081.84 544.643 1147.53 540.468C1253.08 533.762 1346.77 562.067 1439.65 610.839M0.210258 631.739C50.2504 617.278 91.0352 594.054 130.668 560.565C159.936 535.819 187.64 508.727 223.015 492.662C278.588 467.401 322.232 483.508 378.072 500.52C443.414 520.432 508.715 540.612 574.654 558.467C686.478 588.747 813.275 625.979 929.624 606.787C998.257 595.473 1064.73 573.956 1134.04 566.181C1244.39 553.797 1342.12 580.21 1439.65 631.369M0.210258 652.31C48.6873 638.445 87.7445 616.373 124.827 582.411C153.58 556.101 179.762 527.364 215.611 510.537C270.299 484.865 312.606 500.808 367.438 519.054C430.539 540.056 492.693 563.733 555.464 585.702C663.483 623.511 785.468 668.704 901.076 646.385C976.579 631.801 1048.48 603.105 1124.77 591.586C1238.21 574.471 1338.81 599.032 1439.59 651.898M0.210258 672.901C47.7617 659.942 85.7495 639.268 121.002 604.915C147.883 578.708 171.679 550.239 205.965 533.391C259.234 507.226 301.562 521.502 355.078 540.529C417.047 562.581 476.959 589.714 537.406 615.509C643.41 660.723 761.754 713.589 878.679 685.613C957.595 666.73 1032.11 633.22 1112.03 617.792C1229.68 595.083 1334.18 617.34 1439.55 672.489M0.210258 693.471C46.7128 682.034 84.0424 663.521 117.834 629.435C143.112 603.928 164.748 576.446 197.615 560.215C298.785 510.27 430.93 603.228 520.706 648.093C625.084 700.26 738.472 758.618 857.227 725.335C939.455 702.296 1016.36 663.665 1099.82 644.225C1221.37 615.941 1329.64 635.606 1439.53 693.019M0.230826 714.063C45.4582 704.765 82.6232 689.296 115.366 656.259C139.307 632.109 159.154 606.437 190.622 591.544C293.787 542.772 418.116 634.167 505.506 683.762C608.302 742.1 716.424 804.223 836.886 765.551C922.261 738.151 1001.34 694.438 1088.2 670.926C1213.31 637.067 1325.19 653.955 1439.55 713.548M0.230826 734.654C46.0341 727.762 82.87 715.338 116.456 682.734C137.456 662.348 154.876 641.366 182.23 629.065C288.543 581.218 405.611 668.416 491.994 722.805C596.373 788.528 699.229 850.877 824.237 803.873C905.601 773.285 981.165 729.244 1063.93 701.905C1196.63 658.069 1316.25 669.795 1439.53 734.119M0.251393 755.265C43.7923 751.707 81.6566 744.383 115.366 715.358C135.79 697.791 152.346 680.162 178.302 670.556C288.152 629.929 394.094 706.657 480.394 765.468C583.497 835.717 681.11 897.161 806.817 844.685C890.587 809.715 967.858 761.066 1053.34 729.717C1188.89 679.998 1311.91 688.123 1439.51 754.689M0.251393 775.856C42.1674 774.622 80.402 770.878 115.078 745.803C135.604 730.951 152.017 716.058 176.965 708.632C288.851 675.287 385.887 741.36 472.763 802.907C575.394 875.624 668.872 934.085 794.867 878.791C880.427 841.25 959.179 789.968 1046.57 756.191C1183.67 703.201 1308.9 708.2 1439.49 775.26M0.251393 796.427C40.7277 795.008 78.4892 791.12 112.898 768.533C136.324 753.147 154.547 736.855 182.313 729.264C292.306 699.19 385.949 762.712 471.9 822.737C572.041 892.697 663.689 950.315 786.702 900.555C880.262 862.705 965.801 807.844 1061.38 774.355C1193.3 728.153 1313.78 734.427 1439.49 795.872M0.230826 816.998C41.5916 815.393 79.4353 810.785 115.161 788.919C138.011 774.931 157.097 759.564 183.444 751.995C292.862 720.583 387.656 783.324 473.977 842.382C519.41 873.464 565.295 906.13 617.269 925.445C679.402 948.546 734.379 939.701 795.032 915.613C884.52 880.087 967.509 830.286 1058.77 798.751C1191.05 753.044 1312.34 757.096 1439.49 816.463M0.230826 837.568C42.044 835.881 80.5459 830.924 117.382 810.209C141.363 796.735 162.321 781.842 189.347 774.499C298.353 744.918 391.502 804.059 478.748 861.862C524.058 891.895 569.779 923.306 621.177 942.025C683.269 964.632 738.451 955.952 799.31 932.871C888.592 899.033 971.807 851.206 1062.59 820.926C1193.25 777.358 1313.41 780.526 1439.49 837.033M0.230826 858.139C42.8256 856.411 82.0473 851.083 120.364 831.767C145.765 818.972 168.697 804.491 196.71 797.497C305.716 770.261 397.117 824.794 485.926 881.219C531.257 910.017 576.937 940.071 627.902 957.988C689.83 979.772 745.177 971.441 806.056 949.431C894.742 917.361 977.792 871.653 1067.77 842.731C1196.4 801.405 1315.05 803.894 1439.53 857.624M0.230826 878.709C44.3476 876.961 84.8651 871.263 125.239 852.975C152.902 840.448 178.549 826.707 208.577 820.207C316.72 796.777 405.467 846.537 495.223 900.473C541.355 928.202 587.817 957.638 639.358 974.342C702.829 994.912 759.8 985.265 821.749 963.151C911.525 931.102 996.262 886.526 1088.05 859.784C1210.1 824.218 1322.23 829.504 1439.53 878.257M0.230826 899.28C45.4788 897.593 87.3948 891.73 129.578 874.965C159.092 863.24 187.023 850.198 218.449 844.027C326.53 822.757 414.825 867.848 506.411 919.624C616.323 981.768 706.654 1021.41 832.546 978.682C921.068 948.649 1004.94 906.459 1095.23 881.198C1214.6 847.812 1324.6 852.605 1439.57 898.827M0.230826 919.85C84.4331 916.97 152.017 880.951 232.908 867.519C339.549 849.808 427.001 889.941 519.184 938.693C625.784 995.077 717.226 1033.56 837.955 996.023C926.045 968.644 1009.38 928.079 1098.54 903.682C1216.52 871.407 1325.48 875.109 1439.59 919.418M0.230826 940.421C86.9012 937.808 160.553 904.319 244.631 891.936C351.231 876.241 439.156 911.787 533.293 957.7C640.037 1009.76 732.98 1045.5 851.838 1010.63C938.159 985.306 1020.18 947.332 1107.37 924.623C1222.15 894.734 1328.46 898.189 1439.59 940.009M0.251393 960.991C89.8629 958.708 169.376 927.852 256.972 916.559C363.551 902.818 452.422 933.941 548.471 976.687C655.236 1024.23 749.948 1057.2 866.873 1025.01C951.24 1001.78 1031.74 966.463 1116.83 945.461C1228.24 917.958 1331.69 921.29 1439.63 960.642M0.251393 981.562C93.1331 979.649 178.364 951.488 269.723 941.305C376.303 929.416 466.532 956.301 564.411 995.653C671.093 1038.52 767.759 1068.72 882.751 1039.2C965.02 1018.07 1043.85 985.45 1126.7 966.196C1234.57 941.12 1335.05 944.35 1439.65 981.253M0.251393 1002.13C98.1721 1000.57 190.375 974.342 287.185 965.723C392.058 956.384 482.656 979.567 580.865 1014.6C685.12 1051.79 781.745 1080.07 892.562 1054.85C973.617 1036.42 1051.38 1005.86 1132.58 987.795C1238.3 964.283 1336.96 966.895 1439.67 1001.8M0.251393 1022.7C101.977 1021.59 199.486 998.142 300.41 990.613C405.282 982.796 497.876 1002.24 597.586 1033.56C701.718 1066.27 800.317 1091.55 909.529 1068.8C988.323 1052.39 1064.26 1024.64 1143.11 1008.39C1245.06 987.363 1340.58 989.975 1439.71 1022.42M0.27196 1043.27C105.905 1042.62 208.474 1021.92 313.532 1015.48C418.466 1009.04 513.219 1025.05 614.287 1052.57C718.316 1080.92 818.725 1103.17 926.559 1082.85C1103.66 1049.49 1258.72 986.272 1439.75 1043.01M0.27196 1063.84C109.813 1063.62 217.195 1045.62 326.345 1040.23C431.403 1035.07 528.418 1047.86 630.679 1071.64C734.667 1095.81 836.66 1115.02 943.404 1097.11C1114.28 1068.41 1266.06 1011.86 1439.79 1063.6M0.27196 1084.41C108.661 1084.6 215.549 1070.63 323.61 1065.49C434.056 1060.24 538.167 1069.58 646.474 1090.77C752.684 1111.55 857.659 1127.12 965.74 1110.62C1128.32 1085.79 1275.3 1038.21 1439.79 1084.19M0.27196 1104.99C112.199 1105.52 223.139 1093.82 334.86 1089.74C445.656 1085.71 552.05 1092.52 661.447 1110C767.739 1127 873.742 1139.75 981.247 1125.66C1137.93 1105.13 1281.96 1063.8 1439.84 1104.76M0.27196 1125.56C227.026 1127.22 449.07 1100.69 675.33 1129.38C781.807 1142.88 888.551 1152.94 995.768 1141.21C1146.83 1124.69 1288.17 1089.58 1439.86 1125.39M0.27196 1146.13C230.317 1148.18 458.099 1126.63 687.815 1148.86C794.6 1159.19 901.837 1166.7 1009.01 1157.28C1154.9 1144.44 1293.77 1115.46 1439.88 1145.98M0.27196 1166.7C233.422 1168.96 465.688 1152.19 698.653 1168.51C805.809 1176.02 913.417 1181.2 1020.76 1173.98C1161.99 1164.5 1298.66 1141.52 1439.9 1166.57M0.27196 1187.27C236.158 1189.47 471.776 1177.31 707.58 1188.32C815.167 1193.34 923.063 1196.52 1030.73 1191.4C1168.02 1184.88 1302.75 1167.81 1439.92 1187.16M0.27196 1207.84C238.317 1209.67 476.321 1201.85 714.305 1208.31C822.365 1211.25 930.57 1212.84 1038.65 1209.65C1172.81 1205.7 1305.88 1194.38 1439.94 1207.76M0.27196 1228.41C239.716 1229.54 479.16 1225.75 718.583 1228.53C958.644 1231.31 1200.29 1215.63 1439.96 1228.37M0.252067 1248.98C0.457922 769.007 -0.406668 289.014 0.252067 -190.959C480.148 -190.568 960.063 -190.774 1439.96 -190.959C1439.79 289.014 1439.69 769.007 1439.96 1248.98C960.063 1248.32 480.148 1249.04 0.252067 1248.98Z" stroke="url(#paint3_linear_7_11424)" stroke-opacity="0.72" stroke-miterlimit="10"/>
</g>
</g>
<defs>
<radialGradient id="paint0_radial_7_11424" cx="0" cy="0" r="1" gradientUnits="userSpaceOnUse" gradientTransform="translate(626 1.56468e-05) rotate(83.1283) scale(785.644 788.958)">
<stop stop-color="#742DBC" stop-opacity="0.48"/>
<stop offset="1" stop-color="#0F0618" stop-opacity="0"/>
</radialGradient>
<radialGradient id="paint1_radial_7_11424" cx="0" cy="0" r="1" gradientUnits="userSpaceOnUse" gradientTransform="translate(861.5 -2.73231e-06) rotate(100.282) scale(792.731 577.368)">
<stop stop-color="#3A00FF" stop-opacity="0.24"/>
<stop offset="1" stop-color="#0F0618" stop-opacity="0"/>
</radialGradient>
<radialGradient id="paint2_radial_7_11424" cx="0" cy="0" r="1" gradientUnits="userSpaceOnUse" gradientTransform="translate(627 -2.28077e-05) rotate(83.2007) scale(785.525 752.935)">
<stop offset="0.157167" stop-color="white"/>
<stop offset="0.803155" stop-color="white" stop-opacity="0"/>
</radialGradient>
<linearGradient id="paint3_linear_7_11424" x1="489" y1="-3.50001" x2="946.994" y2="747.503" gradientUnits="userSpaceOnUse">
<stop offset="0.163536" stop-color="white" stop-opacity="0.1"/>
<stop offset="1" stop-color="white" stop-opacity="0.04"/>
</linearGradient>
<clipPath id="clip0_7_11424">
<rect width="1440" height="780" fill="white"/>
</clipPath>
</defs>
</svg>
