<svg width="24" height="24" viewBox="0 0 24 24" fill="none" xmlns="http://www.w3.org/2000/svg">
<g clip-path="url(#clip0_2356_116434)">
<path d="M3.42188 16.5793L3.58926 16.7693L12.0443 19.166L12.0826 17.6804L6.16103 16.1944L5.87126 16.0898L3.42188 16.5793Z" fill="#B7CA9D"/>
<path d="M20.5787 16.5792L11.9437 19.4615L11.918 17.6803L17.8394 16.1943L18.0975 15.9038L20.5787 16.5792Z" fill="#B7CA9D"/>
<path d="M11.918 6.39733L17.8394 7.7774L20.4437 7.65386L20.5787 7.39286L12.3283 4.4231L11.918 6.39733Z" fill="#3C4929"/>
<path d="M6.16109 16.1943L3.42193 16.5792L3.3457 16.2948V7.69228L3.42193 7.39282L5.89701 7.5769L6.16109 7.77767V16.1943Z" fill="#759C3E"/>
<path d="M12.0826 6.39731L6.16103 7.77738L3.42188 7.39284L3.52511 7.23077L12.0443 4.80615L12.0826 6.39731Z" fill="#3C4929"/>
<path d="M11.9886 0L2.1543 4.96392L2.15899 19.0111L11.9886 23.9724L12.1351 23.75V0.288462L11.9886 0ZM9.11291 18.2869L3.42284 16.5792V7.39285L9.11291 5.68577V18.2869Z" fill="#4B612C"/>
<path d="M17.8379 16.1943L20.5771 16.5792L20.7306 16.3077V7.65382L20.5771 7.39282L17.8379 7.77767V16.1943Z" fill="#4B612C"/>
<path d="M11.9883 23.9724L21.8416 19.0114L21.8463 4.96431L11.9883 0V23.9724ZM14.8873 5.68577L20.5774 7.39285V16.5792L14.8873 18.2869V5.68577Z" fill="#759C3E"/>
</g>
<defs>
<clipPath id="clip0_2356_116434">
<rect width="24" height="24" fill="white"/>
</clipPath>
</defs>
</svg>
