<svg width="263" height="900" viewBox="0 0 263 900" fill="none" xmlns="http://www.w3.org/2000/svg">
<path d="M-392.371 899.984C-389.702 719.2 -395.934 538.354 -393.975 357.555C-393.096 276.172 -390.612 194.713 -390.828 113.331C-391.106 15.4562 -397.646 -82.0945 -392.401 -179.954M-376.945 899.984C-372.533 718.244 -385.954 536.457 -380.57 354.592C-378.179 273.75 -372.58 192.569 -373.212 111.695C-373.968 14.0214 -386.879 -82.2487 -377.007 -179.938M-361.52 899.984C-356.121 716.963 -377.932 534.497 -367.582 351.167C-363.062 271.004 -353.776 190.008 -354.979 109.705C-356.445 12.0466 -375.742 -82.1099 -361.597 -179.938M-346.094 899.984C-343.117 802.789 -356.46 706.549 -359.854 609.57C-362.908 522.417 -362.923 434.231 -354.964 347.341C-347.714 267.996 -334.278 187.2 -336.207 107.437C-338.582 9.54734 -364.358 -81.5853 -346.202 -179.923M-330.669 899.985C-327.892 801.817 -345.477 705.284 -350.66 607.533C-355.319 519.825 -354.424 430.297 -342.701 343.176C-332.15 264.802 -314.21 184.284 -317.002 104.954C-320.442 6.56977 -352.835 -80.6288 -330.792 -179.907M-315.243 899.984C-312.96 800.66 -335.05 703.85 -342.33 605.203C-348.84 516.971 -346.912 425.823 -330.731 338.717C-316.369 261.423 -293.632 181.445 -297.381 102.284C-299.371 60.2743 -310.785 20.1463 -318.868 -20.8919C-329.666 -75.6919 -329.342 -125.617 -315.398 -179.923M-299.818 899.985C-298.306 799.333 -325.1 702.26 -334.726 602.642C-343.302 513.916 -340.31 420.84 -319.023 334.073C-300.358 257.998 -272.608 178.869 -277.436 99.5538C-279.981 57.8676 -293.478 18.8967 -303.196 -21.3856C-316.462 -76.4169 -315.768 -125.37 -299.988 -179.907M-284.393 899.985C-283.822 793.362 -318.622 691.97 -329.203 586.598C-337.749 501.451 -333.106 411.167 -307.562 329.26C-284.686 255.869 -252.292 179.316 -256.827 100.85C-259.357 57.2196 -276.217 17.5699 -288.018 -23.9312C-303.489 -78.33 -301.885 -125.956 -284.578 -179.876M-268.967 899.985C-269.646 791.681 -309.829 690.181 -323.018 583.574C-333.6 498.026 -327.599 405.119 -296.286 324.4C-268.396 252.522 -230.743 177.588 -236.404 98.1036C-239.505 54.5815 -258.647 16.3202 -272.222 -24.3786C-290.393 -78.8545 -288.141 -125.74 -269.183 -179.876M-253.542 899.985C-255.624 789.891 -301.253 688.314 -317.187 580.426C-329.882 494.524 -322.555 398.593 -285.148 319.54C-251.984 249.451 -208.978 176.4 -215.857 95.4963C-219.559 51.9741 -240.97 15.1632 -256.349 -24.7334C-277.343 -79.1939 -274.304 -125.478 -253.758 -179.861M-238.132 899.985C-241.726 788.024 -292.799 686.416 -311.588 577.217C-326.427 490.991 -317.819 391.681 -274.15 314.758C-235.54 246.782 -187.12 175.768 -195.295 93.0741C-199.614 49.4286 -223.292 14.0986 -240.476 -24.9957C-264.386 -79.3636 -260.452 -125.2 -238.363 -179.83M-222.706 899.985C-227.75 787.7 -282.711 687.28 -305.14 578.575C-323.249 490.836 -314.503 385.788 -263.183 310.16C-218.217 243.897 -163.257 172.636 -175.304 86.687C-181.289 43.9516 -207.157 10.7354 -225.56 -26.955C-251.706 -80.4899 -246.184 -125.91 -222.953 -179.83M-207.281 899.985C-213.914 785.787 -274.104 685.321 -299.448 575.381C-319.732 487.411 -310.091 378.29 -252.277 305.702C-201.897 242.463 -141.183 173.022 -154.942 84.8202C-161.652 41.8226 -189.727 10.0565 -209.857 -26.8933C-238.918 -80.2584 -232.208 -125.663 -207.558 -179.83M-191.855 899.984C-200.046 783.858 -265.373 683.392 -293.586 572.249C-315.968 484.063 -305.556 370.699 -241.371 301.536C-185.824 241.675 -119.263 174.024 -134.766 83.3541C-142.185 40.0017 -172.435 9.6396 -194.231 -26.6006C-226.223 -79.7806 -218.202 -125.339 -192.133 -179.8M-176.445 899.984C-185.886 783.658 -254.436 684.163 -286.12 573.823C-311.912 483.986 -301.885 364.728 -230.496 297.632C-169.643 240.441 -94.9836 173.098 -115.685 78.3092C-124.971 35.7899 -157.194 7.35625 -179.916 -27.7422C-213.883 -80.1971 -203.764 -126.033 -176.754 -179.784M-161.02 899.984C-171.756 781.853 -245.058 682.343 -279.379 570.969C-307.083 481.055 -296.795 357.261 -219.482 294.192C-154.171 240.935 -73.4189 175.304 -96.1405 77.7847C-106.152 34.8025 -140.442 7.6031 -164.676 -26.94C-201.419 -79.3177 -189.711 -125.694 -161.344 -179.784M-145.594 899.984C-157.164 781.914 -233.196 683.099 -270.556 572.866C-301.175 482.52 -293 350.473 -208.33 291.291C-178.574 270.495 -147.214 254.65 -123.351 226.402C-91.1427 188.279 -65.9375 132.538 -76.3805 81.9348C-85.281 38.7983 -119.31 11.3521 -145.78 -21.2625C-188.709 -74.1185 -177.093 -122.794 -145.934 -179.784M-130.169 899.984C-142.556 780.356 -222.891 681.479 -262.458 570.459C-294.512 480.515 -286.969 343.361 -197.054 288.869C-165.632 269.831 -132.591 256.224 -107.417 228.33C-73.5423 190.794 -46.6557 134.05 -57.6695 82.6907C-67.0481 38.9063 -102.959 12.2778 -130.786 -19.8431C-176.569 -72.6683 -163.133 -122.269 -130.524 -179.753M-114.744 899.984C-127.701 777.224 -214.376 677.514 -255.1 563.779C-286.799 475.238 -278.485 335.94 -185.639 287.003C-153.446 270.032 -119.726 259.063 -93.2405 232.743C-57.7158 197.444 -29.1633 138.925 -38.4031 87.9362C-46.9334 40.8194 -87.5331 13.6663 -117.536 -19.6117C-164.892 -72.1283 -148.556 -122.917 -115.129 -179.738M-99.3182 899.984C-112.368 775.944 -203.023 676.249 -245.289 561.943C-277.682 474.359 -270.88 329.753 -173.977 285.876C-140.55 270.741 -105.859 262.025 -78.1699 236.306C-41.2722 202.056 -11.1464 141.486 -20.8181 90.235C-29.8883 42.177 -71.9072 15.7799 -103.236 -17.3901C-153.168 -70.2616 -134.581 -122.362 -99.7347 -179.723M-83.8927 899.984C-96.2948 776.638 -188.508 677.591 -232.64 564.967C-266.453 478.694 -264.463 324.461 -161.992 285.552C-128.071 272.67 -93.4873 266.005 -65.0428 241.799C-24.5665 207.348 7.30246 142.844 -4.77566 89.2013C-14.833 44.5375 -54.4918 19.6678 -85.0188 -10.355C-141.044 -65.4789 -122.965 -118.134 -84.3401 -179.707M-68.4519 899.984C-79.9592 775.82 -175.566 676.742 -220.454 563.903C-253.927 479.759 -255.069 319.17 -149.744 285.984C-115.16 275.092 -80.1752 270.695 -50.944 247.26C-9.32614 213.89 23.6842 146.902 11.3747 93.2126C0.916299 47.546 -39.7143 23.0619 -71.321 -7.1614C-129.814 -63.103 -109.113 -117.378 -68.9146 -179.676M-53.0264 899.984C-63.053 773.738 -164.444 673.441 -208.9 558.688C-240.661 476.719 -242.636 314.279 -137.218 287.218C-103.036 278.44 -68.4827 276.712 -38.835 255.19C4.40249 223.794 35.5773 155.68 27.1087 102.546C19.1183 52.3749 -26.0628 27.1503 -59.7982 -4.95522C-119.063 -61.3751 -94.1352 -118.474 -53.52 -179.661M-37.601 899.984C-46.7945 773.429 -150.145 674.12 -194.339 559.243C-226.054 476.781 -225.159 316.501 -118.754 292.125C-84.5097 284.272 -49.5557 283.67 -19.4761 263.089C25.1651 232.527 53.8101 164.767 45.2336 111.633C36.981 60.4745 -8.20011 33.3214 -42.46 -0.0182753C-101.91 -57.8729 -78.4938 -116.53 -38.0946 -179.645M-22.1755 899.969C-31.184 775.018 -133.192 678.625 -177.957 565.831C-211.631 480.978 -206.432 322.533 -97.6985 297.494C-62.6981 289.44 -26.4792 288.53 4.12487 267.486C49.6916 236.168 76.285 168.917 64.4074 114.935C53.8102 66.7383 11.7141 37.9961 -21.3117 5.42777C-81.5789 -54.0005 -62.8061 -112.781 -22.6537 -179.676M-6.75011 899.969C-15.666 775.373 -119.078 681.247 -163.704 569.025C-198.843 480.638 -185.269 328.951 -76.905 301.705C-41.7659 292.88 -4.82193 291.307 26.1215 270.433C72.2281 239.33 96.1375 173.592 83.8898 119.687C72.8297 71.0272 31.1348 41.2051 -1.95278 7.63397C-61.1865 -52.4577 -46.0387 -111.053 -7.21288 -179.661M8.67532 899.969C-0.471964 774.231 -107.879 682.481 -151.333 568.824C-186.487 476.874 -161.56 335.246 -56.312 304.745C-20.5713 294.392 18.054 291.97 49.4602 270.001C93.2839 239.346 114.324 178.189 104.236 126.321C93.7775 72.5854 47.5783 41.0508 12.7322 3.28328C-41.4573 -55.4508 -27.1888 -113.29 8.24341 -179.661M24.1008 899.969C14.9072 776.916 -91.0656 688.545 -135.768 578.466C-174.826 482.274 -141.383 342.111 -35.8733 307.012C0.823776 294.809 40.5752 290.196 72.475 266.653C116.175 234.409 134.794 173.607 122.083 121.399C109.774 70.8575 67.3074 40.4337 33.5874 4.28611C-21.1112 -54.3708 -10.7607 -111.361 23.6843 -179.661M39.5262 899.969C30.2247 778.011 -77.1981 693.05 -121.932 584.422C-163.071 484.511 -118.955 348.375 -15.6197 308.293C21.2933 293.976 61.8005 287.08 93.8854 262.472C136.768 229.58 154.353 170.522 141.103 118.53C128.346 68.4816 86.327 38.1504 52.6995 2.26504C-1.25863 -55.3273 6.46949 -111.3 39.1406 -179.676M54.9516 899.969C45.2027 777.317 -66.4311 696.382 -109.993 586.751C-150.963 483.616 -94.3666 353.805 4.41789 308.694C42.0097 291.523 84.2754 282.405 116.669 255.344C158.395 220.493 175.07 161.049 158.95 108.995C143.71 59.7494 99.9939 30.4518 66.7984 -5.81919C16.604 -60.6654 25.6125 -115.589 54.5814 -179.676M70.3771 899.969C60.4277 778.721 -52.7179 701.89 -96.3565 594.08C-139.316 487.936 -71.5369 358.711 24.3321 308.478C62.1707 288.653 105.161 276.373 137.663 247.492C177.892 211.745 194.305 154.184 177.568 102.454C161.958 54.2108 118.797 25.6075 85.7408 -9.75329C36.1634 -62.7944 42.8735 -116.221 70.0531 -179.676M85.8025 899.969C75.2978 778.351 -42.3983 706.271 -84.5252 597.628C-126.251 490.003 -47.2573 361.627 44.0613 307.707C123.641 260.713 231.959 214.985 197.375 98.782C182.906 50.1533 139.853 21.6579 106.179 -12.8543C56.0314 -64.2292 59.7027 -115.928 85.4786 -179.723M101.228 899.984C90.461 779.924 -28.793 712.52 -71.0125 605.882C-94.5054 546.546 -71.6295 477.121 -44.1568 422.783C-19.3527 373.738 18.3008 336.449 63.6516 306.303C140.131 255.437 251.564 203.507 215.654 89.3864C200.799 42.1616 158.348 14.8388 124.921 -18.2695C75.4366 -67.284 77.0717 -117.101 100.935 -179.723M116.653 899.984C105.578 781.39 -15.3884 719.107 -57.5307 614.367C-81.5326 554.723 -55.5871 484.634 -27.991 430.405C-1.82942 378.968 37.1198 338.516 83.103 304.436C156.405 250.114 270.939 190.979 233.717 78.9726C218.538 33.306 176.658 7.29455 143.54 -24.2555C94.7646 -70.7244 94.4407 -118.505 116.391 -179.753M132.079 899.984C120.356 781.097 -5.59319 724.6 -45.7148 618.934C-65.7524 566.155 -41.7504 502.731 -19.7229 454.195C7.90406 393.332 50.941 343.962 102.4 302.076C171.846 245.548 286.518 180.612 252.953 71.9683C238.869 26.3789 197.251 1.01538 163.716 -29.1308C114.617 -73.27 111.501 -118.813 131.832 -179.784M147.504 899.984C135.411 782.146 6.88595 732.021 -32.2484 627.651C-52.1935 574.471 -26.2787 510.846 -4.00441 462.248C25.1651 398.593 69.6212 345.767 121.59 299.53C187.688 240.719 306.062 166.665 270.63 60.166C255.883 15.857 215.006 -6.62141 182.104 -35.8264C134.423 -78.1452 128.654 -119.585 147.288 -179.8M162.93 899.984C150.512 783.519 20.4603 738.685 -18.7665 636.244C-39.0818 583.187 -10.5294 518.236 11.6833 470.132C42.3953 403.607 88.2089 347.326 140.64 296.768C203.715 235.952 325.205 152.733 288.076 48.1168C272.99 5.61289 232.838 -15.2919 200.367 -42.6456C153.536 -82.1102 146.131 -121.343 162.729 -179.815M178.355 900C166.015 789.845 45.8969 747.418 -0.0708529 655.606C-30.4127 594.99 5.26633 522.387 32.6465 466.738C64.5925 401.802 109.635 345.876 159.552 293.976C220.683 230.429 347.14 136.257 303.625 32.7664C287.613 -5.30968 251.024 -23.8849 220.189 -48.1993C173.311 -85.1645 163.377 -121.945 178.17 -179.846M193.781 900C181.163 790.878 59.7644 753.265 13.4881 663.29C-17.5325 602.982 21.4167 528.758 48.5346 473.727C81.8999 406.029 128.053 346.817 178.386 291.045C236.895 226.201 365.959 122.804 320.609 21.2109C304.381 -15.1682 268.532 -32.3085 238.19 -54.9258C192.3 -89.1295 180.9 -123.75 193.626 -179.861M209.206 900C196.341 791.727 73.7089 758.819 27.1241 670.51C-4.48262 610.588 37.598 534.698 64.4537 480.345C99.2226 409.994 146.409 347.619 197.128 288.145C253.261 222.298 384.562 110.045 337.376 10.1799C320.963 -24.5329 285.901 -40.3465 256.099 -61.3747C211.258 -93.0019 198.485 -125.524 209.098 -179.876M224.631 900C211.551 792.359 87.7153 764.018 40.8374 677.159C8.73706 617.669 53.8102 540.144 80.4036 486.517C116.545 413.666 164.704 348.313 215.746 285.368C269.797 218.704 402.872 98.2424 353.85 -0.0642289C337.314 -33.2188 303.07 -47.829 273.808 -67.3916C230.046 -96.6584 216.009 -127.236 224.508 -179.892M240.057 900C226.806 792.745 101.799 768.755 54.6585 683.099C22.1571 624.056 70.0531 545.035 96.4152 492.163C133.899 417.014 182.952 348.93 234.288 282.776C286.565 215.433 420.874 87.6743 370.093 -9.27472C353.48 -40.9945 320.099 -54.5711 291.408 -72.8686C248.741 -100.068 233.563 -128.887 239.949 -179.938M255.482 900C242.124 792.853 115.975 772.967 68.6186 688.252C35.8704 629.657 86.3424 549.354 112.519 497.254C151.299 420.053 201.169 349.517 252.767 280.508C293.876 225.538 339.304 171.664 371.188 110.523C391.195 72.1692 408.564 23.9724 386.105 -17.1429C369.476 -47.5668 337.006 -60.3565 308.901 -77.5895C267.329 -103.076 251.163 -130.399 255.42 -179.938M270.908 900C257.503 792.683 130.228 776.577 82.702 692.464C49.8304 634.27 102.647 553.011 128.701 501.667C168.745 422.753 219.356 350.103 271.155 278.595C312.371 221.712 357.83 165.616 389.282 102.454C408.271 64.3164 424.499 16.7059 401.808 -23.453C385.241 -52.766 353.711 -65.0158 326.193 -81.4619C285.685 -105.653 268.702 -131.788 270.846 -179.938M286.333 900C272.975 792.19 144.589 779.523 96.9705 695.642C64.1144 637.787 119.013 555.973 145.036 505.37C186.299 425.098 237.558 350.72 289.526 277.144C330.774 218.734 376.233 160.833 407.191 96.0053C425.301 58.0527 440.017 11.337 417.311 -27.9579C400.898 -56.3915 370.356 -68.4099 343.407 -84.3624C303.918 -107.736 286.287 -133.053 286.318 -179.938M301.759 899.984C288.524 791.341 159.027 781.683 111.393 697.663C78.7222 640.024 135.364 558.179 161.464 508.27C203.9 427.073 255.714 351.414 307.79 276.219C348.991 216.744 394.404 157.47 424.792 91.4232C442.176 53.6094 454.933 8.17423 432.474 -30.3955C416.277 -58.1812 386.784 -70.3384 360.406 -86.152C321.889 -109.232 303.779 -134.164 301.728 -179.954M317.184 899.984C303.44 791.141 174.468 782.316 126.788 698.11C94.1168 640.41 151.345 559.707 177.676 509.998C220.775 428.646 272.713 352.525 324.619 276.651C365.697 216.605 410.894 156.637 440.989 90.0193C458.142 52.0666 469.68 7.94281 447.328 -30.4573C431.348 -57.9035 402.749 -70.6007 376.85 -86.6611C339.242 -110.004 320.794 -134.966 317.184 -179.969M332.609 899.984C317.122 792.544 192.022 780.279 144.296 696.182C111.208 637.88 166.709 560.092 193.487 509.597C236.139 429.186 287.243 353.79 338.317 278.595C379.102 218.534 423.604 158.596 453.9 92.2718C471.516 53.6866 483.825 10.5038 461.196 -28.6831C445.385 -56.0676 417.388 -69.5516 391.92 -86.2292C355.269 -110.25 336.774 -135.49 332.64 -179.969M348.019 899.985C331.144 793.532 209.931 777.039 162.467 692.464C129.333 633.436 182.489 558.997 209.777 507.576C251.718 428.538 301.759 354.269 351.722 280.184C391.951 220.539 435.543 161.049 465.746 95.4344C483.732 56.3555 496.32 14.2528 473.86 -25.6438C458.404 -53.09 431.209 -67.6077 406.312 -85.1184C370.772 -110.142 352.493 -135.953 348.05 -179.985M363.445 899.984C345.521 794.164 228.21 772.72 181.332 687.203C148.522 627.358 198.748 556.621 226.575 504.166C267.576 426.872 316.305 354.114 364.941 281.51C404.353 222.668 446.85 163.981 476.714 99.4766C494.978 60.012 507.395 19.0972 485.522 -21.4319C470.605 -49.0787 444.351 -64.8152 420.18 -83.3596C385.904 -109.664 368.073 -136.293 363.476 -179.969M378.855 899.985C360.19 794.504 246.844 767.474 200.83 680.615C168.683 619.922 215.515 553.088 243.852 499.584C283.695 424.342 330.897 353.435 377.991 282.621C416.385 224.905 457.586 167.359 486.864 104.259C505.313 64.5015 517.175 24.8518 496.258 -16.2173C482.02 -44.1727 456.831 -61.3131 433.538 -81.0608C400.713 -108.877 383.483 -136.57 378.901 -179.985M394.28 899.969C375.184 794.581 265.848 761.442 220.991 672.917C189.832 611.421 232.853 548.552 261.652 494.014C300.139 421.118 345.613 352.309 390.964 283.593C428.124 227.281 467.844 171.139 496.335 109.736C514.861 69.8087 525.859 31.4241 506.192 -10.0924C492.741 -38.4798 468.739 -57.1784 446.465 -78.2684C415.274 -107.797 398.754 -136.709 394.342 -179.985M409.706 899.969C390.424 794.442 285.253 754.792 241.769 664.385C211.859 602.195 250.808 543.23 279.978 487.72C316.922 417.4 360.483 350.921 403.906 284.503C439.647 229.842 477.747 175.305 505.22 115.83C523.7 75.8256 533.618 38.6443 515.416 -3.19615C502.845 -32.1081 480.123 -52.5037 458.99 -75.0594C429.62 -106.409 413.886 -136.756 409.752 -179.985M425.131 899.969C405.896 794.118 305.029 747.68 263.149 655.236C234.735 592.522 269.427 537.244 298.797 480.916C334.029 413.342 375.523 349.378 416.848 285.445C465.407 210.342 561.847 100.31 524.055 4.37895C512.408 -25.1809 491.06 -47.3663 471.207 -71.4801C443.811 -104.743 428.957 -136.648 425.178 -179.985M440.541 899.954C421.553 793.624 325.19 740.244 285.099 645.686C258.367 582.632 288.724 530.764 318.125 473.804C351.506 409.115 390.779 347.773 429.867 286.463C478.133 210.743 565.95 108.286 532.199 12.494C521.525 -17.8064 501.626 -41.8739 483.162 -67.5922C457.879 -102.799 443.95 -136.385 440.603 -179.954M455.967 899.954C437.41 793.131 346.184 732.499 307.62 635.982C282.477 573.036 308.901 523.759 337.978 466.615C369.384 404.887 406.312 346.261 443.025 287.62C490.72 211.437 569.621 116.324 539.989 20.9948C530.317 -10.1541 511.93 -36.1347 494.916 -63.5193C471.84 -100.654 458.882 -136.046 456.028 -179.969M471.392 899.938C453.406 792.452 367.378 724.924 330.681 626.34C307.358 563.672 329.787 516.74 358.339 459.533C387.647 400.815 422.123 344.919 456.352 288.993C503.153 212.517 573.077 124.254 547.517 29.7887C527.201 -45.2989 475.742 -98.8029 471.438 -179.969M486.818 899.923C469.526 791.681 388.712 717.719 354.282 616.99C346.878 595.33 340.014 569.256 342.22 546.115C345.227 514.703 365.666 480.669 379.225 452.806C406.359 397.065 438.274 343.885 469.927 290.644C515.447 214.044 576.516 131.952 554.89 38.7215C537.012 -38.3101 490.165 -98.2167 486.864 -180M502.243 899.923C485.784 790.956 410.446 710.931 378.377 608.212C371.405 585.872 364.617 559.182 366.761 535.562C369.476 505.57 388.033 473.48 400.651 446.697C425.517 393.872 454.825 343.346 483.81 292.711C527.618 216.189 580.172 139.342 562.248 47.7622C546.761 -31.3675 504.619 -97.2292 502.305 -179.969M517.668 899.923C502.15 790.307 432.582 704.698 402.965 600.205C396.455 577.217 389.853 550.049 391.92 525.95C394.357 497.347 410.986 467.124 422.601 441.359C445.153 391.326 471.778 343.33 498.032 295.195C539.634 218.935 584.183 146.285 569.652 56.695C556.463 -24.6255 519.088 -95.9487 517.715 -179.954M533.109 899.907C518.64 789.783 455.118 699.175 428.031 593.185C422 569.58 415.706 542.103 417.65 517.573C419.809 490.296 434.494 461.847 445.076 437.024C465.268 389.629 489.178 343.978 512.67 298.173C551.558 222.329 588.733 152.749 577.257 65.4118C566.289 -18.1766 533.618 -94.4522 533.14 -179.969M548.535 899.907C535.223 789.49 477.979 694.577 453.545 587.415C440.449 530.008 446.603 488.198 468.076 433.938C485.892 388.95 507.056 345.444 527.757 301.736C563.436 226.402 593.916 158.689 585.139 73.8045C576.254 -12.0672 548.195 -92.7552 548.566 -179.969M563.96 899.907C551.928 789.505 501.194 691.029 479.49 583.111C468.292 527.478 472.518 485.359 491.63 432.303C507.071 389.46 525.474 347.804 543.367 305.964C575.344 231.185 599.917 164.15 593.423 81.7654C586.481 -6.35884 562.896 -90.9501 563.976 -179.954M579.386 899.907C568.727 789.876 524.733 688.699 505.837 580.503C496.443 526.768 499.204 484.094 515.694 432.334C528.759 391.311 544.431 351.198 559.533 310.901C587.376 236.615 606.797 169.164 602.215 89.1399C597.048 -1.12878 577.72 -89.1296 579.401 -179.954M594.811 899.907C585.633 790.724 548.581 687.743 532.585 579.84C524.903 528.002 526.692 484.696 540.313 434.247C551.003 394.643 563.991 355.734 576.347 316.624C599.732 242.632 614.679 173.824 611.64 95.8201C608.046 3.54582 592.729 -87.3554 594.826 -179.969M610.252 899.923C602.678 792.113 572.722 688.344 559.734 581.352C548.704 490.512 571.812 410.58 593.87 323.243C612.581 249.127 623.657 178.344 621.821 101.698C619.569 7.61884 607.969 -85.7046 610.267 -179.954M625.677 899.938C619.8 794.118 597.125 690.612 587.206 585.271C578.954 497.547 596.091 416.597 612.103 330.787C644.003 159.707 621.62 -7.45424 625.677 -179.938M641.103 899.938C637.046 796.803 621.759 694.716 615.034 591.797C609.45 506.357 620.926 423.956 631.138 339.319C652.039 165.971 637.709 -6.03489 641.118 -179.969M656.544 899.969C654.43 800.274 646.64 700.856 643.201 601.208C640.27 516.832 646.162 433.151 651.037 348.946C661.248 172.605 654.43 -3.48928 656.544 -179.969M-407.827 -164.526C-230.697 -159.142 -53.0573 -148.651 124.027 -157.63C306.957 -166.887 488.962 -162.088 671.969 -164.541M-407.842 -149.098C-232.501 -139.564 -55.7876 -121.297 119.353 -137.635C206.676 -145.781 293.352 -153.619 381.153 -153.187C478.133 -152.708 574.959 -147 671.969 -149.114M-407.858 -133.655C-322.678 -127.545 -237.144 -125.756 -152.166 -116.916C-60.0913 -107.335 25.3965 -107.489 117.533 -119.585C206.661 -131.279 294.493 -142.865 384.624 -141.616C480.524 -140.289 575.977 -131.14 671.969 -133.67M-407.873 -118.227C-323.774 -111.315 -239.103 -110.266 -155.328 -99.7289C-110.486 -94.0977 -67.8195 -85.998 -22.2682 -87.3402C24.9491 -88.7442 71.7499 -95.5479 118.288 -103.277C208.666 -118.273 297.023 -133.547 389.036 -131.109C483.578 -128.594 577.21 -115.65 671.969 -118.242M-407.873 -102.799C-323.912 -95.625 -239.181 -95.8102 -155.636 -84.1004C-110.44 -77.7595 -67.989 -67.9628 -21.867 -69.3976C26.3992 -70.8941 74.0792 -79.148 121.343 -88.5282C212.461 -106.61 300.787 -125.571 394.296 -121.544C487.265 -117.533 578.584 -100.439 671.954 -102.799M-407.873 -87.3711C-323.203 -80.4131 -237.592 -82.2645 -153.431 -69.8296C-107.833 -63.0876 -65.3822 -51.5938 -18.6739 -53.044C30.4098 -54.5714 78.7223 -64.1829 126.433 -75.1368C217.783 -96.0879 305.708 -118.798 400.296 -112.812C491.522 -107.042 580.049 -85.4889 671.954 -87.3865M-407.873 -71.9432C-321.784 -65.6177 -234.615 -69.4902 -149.05 -56.7158C-103.005 -49.835 -60.3073 -36.6441 -13.0746 -38.0481C36.6261 -39.5137 85.3397 -50.4675 133.282 -62.9024C224.431 -86.5534 311.615 -113.043 406.929 -104.774C496.304 -97.0135 581.514 -70.7398 671.969 -71.974M-407.858 -56.5153C-319.717 -51.1772 -230.419 -57.3484 -142.802 -44.5586C-96.2793 -37.7704 -53.1498 -22.867 -5.42349 -24.163C44.7246 -25.536 93.6695 -37.7395 141.596 -51.6092C232.113 -77.7749 318.403 -108.168 414.056 -97.2912C501.503 -87.3402 582.918 -56.1296 671.954 -56.5307M-407.858 -41.1028C-317.156 -37.0453 -225.298 -45.7312 -135.074 -33.1729C-88.0113 -26.6314 -44.311 -10.0156 3.87802 -11.1881C54.3192 -12.4069 103.341 -25.86 151.114 -41.0874C240.597 -69.5982 325.93 -104.033 421.599 -90.2715C507.102 -77.9601 584.183 -41.6582 671.969 -41.1182M-407.842 -25.6749C-314.194 -23.1293 -219.405 -34.4688 -126.158 -22.3579C-78.5092 -16.1713 -34.1765 2.1262 14.4753 1.12338C65.117 0.0897143 114.093 -14.5822 161.541 -31.1209C249.636 -61.8225 334.06 -100.469 429.435 -83.5758C513.01 -68.7805 585.263 -27.2794 671.969 -25.7057M-407.842 -10.247C-310.971 -9.35216 -213.004 -23.4378 -116.394 -11.8978C-68.0971 -6.12772 -23.1165 13.8205 26.0135 13.0337C76.7786 12.216 125.616 -3.67469 172.617 -21.4785C259.015 -54.2011 342.652 -97.2449 437.441 -77.0498C519.149 -59.6471 586.08 -12.9314 671.969 -10.247M-407.827 5.16551C-307.515 4.31698 -206.324 -12.3452 -106.121 -1.62277C-57.0987 3.62272 -11.5474 25.2989 38.0916 24.7281C88.9185 24.1264 137.57 7.01686 184.063 -12.0212C268.517 -46.5951 351.552 -94.2674 445.539 -70.6472C525.458 -50.5601 586.636 1.32396 671.985 5.15008M-407.827 20.5934C-304.029 17.9861 -199.553 -1.23709 -95.6778 8.68306C-45.8536 13.4503 0.160517 36.8081 50.3395 36.4533C101.228 36.083 149.664 17.7238 195.585 -2.5176C277.895 -38.804 360.576 -91.3206 453.576 -64.1829C531.829 -41.3496 586.867 15.5948 671.985 20.578M-407.811 36.0059C-300.62 31.717 -192.827 9.87103 -85.3735 19.2049C-34.7164 23.6019 11.6678 48.5951 62.4175 48.4408C113.383 48.302 161.603 28.6622 206.938 7.21743C286.966 -30.6272 369.569 -88.2351 461.489 -57.5644C538.169 -31.9849 586.836 29.8502 672 36.0059M-407.796 51.4338C-297.381 45.6175 -186.41 21.2877 -75.563 30.1587C-24.0575 34.278 22.5891 60.8911 73.9095 60.9528C125.014 61.0145 173.064 40.048 217.798 17.4307C295.48 -21.8334 378.315 -84.7792 469.109 -50.6218C544.354 -22.3116 586.481 44.1981 671.984 51.4492M-407.796 66.8617C-294.435 59.7186 -180.549 33.09 -66.5854 41.7142C-14.2469 45.6792 32.5385 73.9277 84.4759 74.1745C135.796 74.406 183.723 52.0509 227.932 28.2457C303.255 -12.3143 386.66 -80.8759 476.375 -43.2936C550.278 -12.3452 585.895 58.5924 671.984 66.8771M-407.781 82.2896C-291.874 74.1128 -175.396 45.4324 -58.7493 54.0874C-5.62405 58.037 41.223 87.9825 93.7312 88.3528C145.376 88.723 193.302 64.9024 237.049 39.9092C310.104 -1.83876 394.419 -76.2784 483.162 -35.4253C555.862 -1.96218 585.108 73.1409 671.984 82.305M-407.781 97.7021C-289.807 88.8619 -171.216 58.3918 -52.394 67.4634C-28.0064 69.3302 -2.56983 72.678 20.5066 81.2097C48.1644 91.4384 70.8552 103.457 101.32 103.719C153.458 104.166 201.478 78.8029 244.885 52.5909C315.78 9.76302 401.391 -70.8478 489.378 -26.9245C561.029 8.83734 584.137 87.8437 672 97.7175M-407.781 113.13C-288.372 104.074 -168.177 72.1535 -47.8743 82.0428C-23.2862 84.0638 2.33543 87.7202 25.4582 96.761C53.3011 107.622 75.8839 120.258 106.827 120.52C159.613 120.983 207.895 93.9994 251.101 66.5223C320.069 22.6762 407.346 -64.3681 494.854 -17.6215C565.611 20.1769 582.98 102.824 671.984 113.145M-407.781 128.573C-287.647 119.81 -166.48 86.8254 -45.4988 98.057C9.29235 103.148 55.7846 138.586 109.928 139.003C163.593 139.404 212.307 110.692 255.498 81.9194C322.783 37.0858 412.158 -56.6541 499.544 -7.39281C569.637 32.1181 581.699 118.144 671.984 128.589M-407.781 144.001C-287.771 136.148 -166.342 102.5 -45.6068 115.645C9.43116 121.631 55.5223 159.09 110.236 159.337C165.012 159.583 214.373 129.067 257.781 98.9055C323.724 53.0846 415.645 -47.598 503.323 3.82325C572.999 44.6918 580.296 133.788 671.984 144.001M-407.796 159.429C-288.85 153.181 -167.946 119.332 -48.553 135.022C6.5929 142.273 51.9128 181.8 107.367 181.784C163.516 181.784 213.772 149.339 257.642 117.728C322.66 70.8575 417.542 -36.9681 506.053 16.181C575.637 57.9752 578.722 149.864 671.984 159.414M-407.796 174.873C-290.979 171.016 -171.463 137.46 -54.6307 156.421C0.54607 165.384 44.4777 206.993 100.966 206.623C158.796 206.237 210.209 171.802 254.819 138.617C319.39 90.5744 417.696 -24.5332 507.642 29.8502C577.519 72.0918 577.01 166.449 671.969 174.873M-407.811 190.3C-294.111 189.467 -177.386 157.562 -64.1173 178.498C-9.18734 188.65 34.189 229.302 91.5716 227.636C150.512 225.923 202.897 191.272 248.757 157.578C313.852 109.767 416.154 -8.48821 506.207 45.5712C535.824 63.3596 551.62 94.4314 570.501 122.047C597.063 160.91 624.15 183.929 671.969 190.27M-407.811 205.744C-297.504 206.855 -184.251 176.492 -74.5912 197.598C-19.8309 208.135 23.3141 246.273 81.144 243.419C140.517 240.503 193.549 207.009 240.705 173.808C307.25 126.938 412.22 10.2104 501.95 62.7425C531.042 79.7749 547.918 109.072 567.523 135.331C595.798 173.206 624.829 196.225 671.969 205.667M-407.811 221.172C-301.067 223.085 -191.609 193.525 -85.5124 213.828C-30.9526 224.273 11.961 259.865 69.8526 256.394C129.318 252.83 182.875 221.048 231.172 188.819C299.923 142.937 405.819 30.6215 495.749 80.8548C524.579 96.9615 542.874 124.331 563.497 149.123C593.963 185.749 625.384 208.876 671.985 221.064M-407.811 236.6C-304.723 238.374 -199.368 208.906 -96.8192 227.543C-42.5834 237.402 0.31476 270.479 57.7745 266.931C117.054 263.259 170.997 233.622 220.281 202.843C291.871 158.133 397.119 52.668 487.712 99.9391C516.527 114.981 536.565 140.252 558.469 163.456C591.556 198.508 625.677 221.881 671.969 236.492M-407.811 252.028C-308.518 252.907 -207.358 222.637 -108.419 239.083C-54.7541 248.001 -11.5011 278.563 45.0639 275.354C103.897 272.022 158.086 244.915 208.203 216.034C283.171 172.836 386.383 76.2265 478.025 119.918C507.087 133.773 529.145 156.776 552.53 178.251C588.595 211.375 625.693 235.149 671.954 251.873M-407.827 267.44C-312.343 266.838 -215.641 235.165 -120.25 248.772C-67.3412 256.332 -23.4713 284.503 31.798 282.019C89.9674 279.397 144.265 255.175 195.045 228.592C273.792 187.385 373.842 101.204 466.811 140.761C496.397 153.351 520.707 173.885 545.774 193.525C585.139 224.381 625.353 248.618 671.923 267.27M-407.827 282.868C-312.698 280.307 -215.811 243.48 -120.59 258.476C-75.3933 265.589 -37.3233 287.126 9.67799 287.419C69.8526 287.789 127.343 265.943 181.055 240.811C262.162 202.874 358.339 128.234 451.478 161.358C483.578 172.774 511.606 191.704 539.85 210.31C582.255 238.235 625.215 262.518 671.907 282.698M-407.827 298.28C-316.447 293.467 -224.912 254.373 -132.992 265.033C-88.6438 270.171 -49.6945 290.335 -4.2049 291.492C54.9054 292.973 112.134 274.706 166.277 252.737C251.271 218.24 343.407 155.526 437.657 184.006C520.121 208.922 593.916 262.38 671.907 298.08M-407.827 313.708C-320.056 306.473 -234.028 264.709 -145.363 270.772C-101.879 273.75 -62.2354 292.726 -18.2575 294.855C39.665 297.663 96.4769 283.146 150.867 264.632C239.347 234.517 327.704 183.913 422.771 207.456C510.449 229.163 590.97 274.83 671.892 313.508M-407.827 329.121C-324.406 319.586 -245.428 276.095 -161.112 276.002C-112.553 275.941 -67.5417 296.846 -18.7974 298.604C33.4177 300.487 84.8307 290.196 134.979 276.65C183.569 263.521 231.141 246.674 280.132 234.964C326.547 223.856 364.016 223.208 410.323 232.28C503.014 250.438 587.469 287.249 671.892 328.905M-407.842 344.533C-327.491 332.654 -254.19 286.092 -173.052 281.31C-125.156 278.486 -80.5608 298.635 -33.0196 302.029C17.9923 305.655 68.8037 298.975 118.751 289.07C166.863 279.535 214.25 266.576 262.532 257.813C308.793 249.42 347.912 250.623 393.91 257.026C493.574 270.911 581.592 298.759 671.83 344.317M-407.842 359.961C-330.206 345.891 -262.72 296.259 -184.683 286.879C-137.296 281.186 -93.7187 300.795 -47.0413 305.855C2.76739 311.255 52.8229 308.2 102.385 302.045C149.88 296.167 196.943 287.203 244.453 281.387C290.282 275.786 331.437 278.594 376.973 282.436C417.233 285.845 457.571 287.512 497.384 295.01C559.225 306.658 616.098 331.126 671.83 359.714M-407.842 375.374C-333.337 359.529 -272.823 308.386 -198.966 293.606C-153.215 284.457 -113.278 301.968 -68.4827 309.219C-17.4091 317.473 34.4204 318.29 86.003 315.822C135.087 313.477 183.97 308.154 233.023 305.331C277.078 302.801 319.421 307.398 363.275 308.602C405.556 309.759 447.776 307.907 489.887 313.122C554.936 321.175 614 345.15 671.799 375.142M-407.842 390.786C-335.189 373.26 -280.644 319.602 -209.672 300.841C-164.336 288.869 -126.128 305.747 -81.6869 314.557C-31.8011 324.462 18.9332 328.905 69.7138 330.463C117.918 331.944 166.138 330.849 214.343 330.895C258.243 330.926 301.975 336.14 345.814 335.045C390.655 333.934 435.189 328.334 480.123 331.111C549.09 335.369 611.039 358.804 671.784 390.524M-407.842 406.214C-337.394 387.608 -289.575 333.394 -222.506 310.268C-179.068 295.287 -144.484 309.234 -101.524 319.648C-50.4658 332.037 1.47161 340.507 53.6867 346.261C141.319 355.919 236.355 368.508 324.403 362.322C370.71 359.066 416.385 350.072 462.908 349.563C538.308 348.76 605.516 371.193 671.784 405.936M-407.842 421.642C-338.428 402.156 -296.471 346.57 -231.977 320.543C-189.341 303.341 -155.899 316.393 -113.386 328.072C-63.3923 341.802 -12.8894 353.728 38.0454 363.432C123.626 379.74 219.479 400.305 306.695 390.092C355.609 384.368 403.382 371.733 452.65 368.601C531.814 363.571 602.077 384.8 671.738 421.38M-407.842 437.054C-370.312 426.209 -339.724 408.79 -309.999 383.674C-288.048 365.114 -267.27 344.795 -240.739 332.746C-199.059 313.801 -166.326 325.881 -124.446 338.64C-75.4396 353.574 -26.4638 368.709 22.9902 382.1C106.858 404.81 201.956 432.735 289.218 418.34C340.692 409.855 390.548 393.717 442.531 387.886C525.289 378.598 598.59 398.407 671.738 436.777M-407.842 452.482C-371.485 442.084 -342.192 425.53 -314.38 400.058C-292.815 380.326 -273.178 358.773 -246.292 346.153C-205.275 326.899 -173.545 338.856 -132.421 352.54C-85.0959 368.292 -38.4803 386.05 8.59818 402.527C89.6126 430.883 181.101 464.778 267.807 448.039C324.434 437.101 378.361 415.579 435.574 406.939C520.661 394.103 596.107 412.524 671.691 452.174M-407.842 467.926C-372.179 458.206 -343.688 442.701 -317.249 416.936C-297.088 397.281 -279.24 375.929 -253.526 363.294C-213.574 343.669 -181.829 354.376 -141.692 368.647C-95.215 385.186 -50.2807 405.535 -4.94529 424.882C74.5574 458.792 163.315 498.442 251.009 477.46C310.196 463.297 366.083 438.165 426.026 426.594C514.26 409.562 592.636 426.255 671.661 467.617M-407.842 483.354C-372.965 474.776 -344.968 460.89 -319.624 435.326C-300.666 416.196 -284.439 395.584 -259.789 383.412C-183.911 345.953 -84.8028 415.671 -17.4708 449.32C60.8133 488.445 145.854 532.214 234.92 507.251C296.591 489.972 354.267 460.998 416.863 446.419C508.028 425.206 589.227 439.955 671.645 483.014M-407.827 498.797C-373.906 491.823 -346.033 480.222 -321.475 455.444C-303.52 437.332 -288.635 418.078 -265.034 406.908C-187.66 370.329 -94.4129 438.875 -28.8702 476.072C48.2261 519.825 129.318 566.417 219.664 537.413C283.695 516.863 343.006 484.079 408.148 466.445C501.981 441.05 585.895 453.717 671.661 498.411M-407.827 514.24C-373.474 509.072 -345.847 499.753 -320.658 475.3C-304.908 460.011 -291.843 444.275 -271.327 435.049C-191.593 399.163 -103.792 464.562 -39.0047 505.354C39.2794 554.646 116.422 601.408 210.178 566.155C271.201 543.214 327.874 510.183 389.946 489.679C489.471 456.802 579.185 465.596 671.645 513.839M-407.811 529.699C-375.156 527.03 -346.758 521.538 -321.475 499.769C-306.158 486.593 -293.74 473.372 -274.273 466.167C-191.886 435.697 -112.43 493.243 -47.7046 537.351C29.6231 590.038 102.832 636.121 197.112 596.764C259.94 570.537 317.894 534.05 382.002 510.537C483.671 473.248 575.93 479.342 671.63 529.267M-407.811 545.142C-376.374 544.217 -347.699 541.409 -321.691 522.602C-306.297 511.463 -293.987 500.293 -275.276 494.724C-191.362 469.715 -118.585 519.27 -53.4275 565.43C23.5455 619.968 93.6541 663.814 188.15 622.344C252.32 594.188 311.384 555.726 376.927 530.393C479.753 490.651 573.678 494.4 671.614 544.695M-407.811 560.57C-377.454 559.506 -349.133 556.59 -323.326 539.65C-305.757 528.11 -292.09 515.891 -271.266 510.198C-188.77 487.642 -118.538 535.284 -54.0753 580.303C21.0311 632.773 89.7668 675.986 182.026 638.666C252.197 610.279 316.351 569.133 388.033 544.016C486.972 509.365 577.334 514.071 671.614 560.154M-407.827 575.998C-376.806 574.795 -348.424 571.339 -321.63 554.939C-304.492 544.448 -290.177 532.923 -270.417 527.246C-188.354 503.687 -117.258 550.743 -52.5174 595.036C-18.4426 618.348 15.9715 642.847 54.9516 657.334C101.552 674.66 142.784 668.026 188.274 649.96C255.39 623.316 317.631 585.965 386.074 562.314C485.29 528.033 576.254 531.072 671.614 575.597M-407.827 591.426C-376.467 590.161 -347.591 586.443 -319.964 570.907C-301.978 560.802 -286.259 549.632 -265.99 544.124C-184.235 521.939 -114.373 566.294 -48.9387 609.646C-14.9565 632.171 19.3343 655.73 57.8824 669.769C104.452 686.724 145.838 680.214 191.482 662.904C258.444 637.525 320.855 601.655 388.943 578.945C486.941 546.268 577.056 548.644 671.614 591.025M-407.827 606.854C-375.881 605.558 -346.464 601.562 -317.727 587.075C-298.676 577.479 -281.477 566.618 -260.468 561.372C-178.713 540.946 -110.162 581.845 -43.5552 624.164C-9.55754 645.763 24.7024 668.303 62.9266 681.741C109.373 698.079 150.882 691.831 196.542 675.323C263.056 651.271 325.344 616.99 392.83 595.298C489.301 564.304 578.29 566.171 671.645 606.468M-407.827 622.282C-374.739 620.97 -344.351 616.697 -314.071 602.982C-293.324 593.586 -274.088 583.28 -251.567 578.405C-170.46 560.832 -103.9 598.153 -36.5829 638.605C-1.98367 659.401 32.8624 681.479 71.5185 694.006C119.121 709.434 161.85 702.198 208.311 685.613C275.643 661.577 339.196 628.144 408.04 608.088C499.574 581.413 583.674 585.378 671.645 621.942M-407.827 637.71C-373.891 636.445 -342.454 632.048 -310.816 619.474C-288.681 610.68 -267.733 600.899 -244.163 596.27C-163.102 580.318 -96.8809 614.136 -28.1915 652.968C54.242 699.576 121.991 729.305 216.41 697.261C282.801 674.737 345.706 643.094 413.423 624.149C502.953 599.109 585.448 602.704 671.676 637.37M-407.827 653.138C-344.675 650.978 -293.987 623.964 -233.319 613.889C-153.338 600.606 -87.7491 630.705 -18.6123 667.27C61.3377 709.557 129.919 738.423 220.467 710.267C286.534 689.733 349.038 659.309 415.907 641.011C504.387 616.805 586.111 619.582 671.691 652.814M-407.827 668.566C-342.824 666.606 -287.586 641.49 -224.526 632.202C-144.576 620.43 -78.6326 647.09 -8.03042 681.525C72.0276 720.573 141.735 747.371 230.879 721.221C295.619 702.229 357.136 673.749 422.524 656.717C508.614 634.3 588.348 636.892 671.691 668.257M-407.811 683.993C-340.603 682.281 -280.968 659.139 -215.271 650.669C-135.337 640.363 -68.6832 663.706 3.35358 695.765C83.427 731.419 154.461 756.15 242.155 732.005C305.43 714.587 365.805 688.097 429.62 672.345C513.18 651.718 590.77 654.218 671.722 683.731M-407.811 699.421C-338.15 697.987 -274.227 676.866 -205.707 669.229C-125.773 660.312 -58.1014 680.476 15.3083 709.989C95.32 742.141 167.82 764.789 254.063 742.65C315.765 726.806 374.891 702.337 437.024 687.897C517.931 669.09 593.284 671.512 671.738 699.19M-407.811 714.849C-334.371 713.677 -265.219 694.006 -192.611 687.542C-113.957 680.538 -46.0078 697.925 27.6486 724.199C105.84 752.092 178.309 773.306 261.421 754.391C322.213 740.568 380.536 717.642 441.436 704.096C520.723 686.462 594.718 688.421 671.753 714.603M-407.811 730.277C-331.517 729.444 -258.385 711.856 -182.693 706.21C-104.038 700.347 -34.593 714.927 40.1895 738.423C118.288 762.954 192.238 781.914 274.147 764.851C333.242 752.54 390.193 731.728 449.334 719.539C525.798 703.772 597.433 705.731 671.784 730.061M-407.796 745.705C-328.571 745.211 -251.644 729.691 -172.851 724.862C-94.1506 720.033 -23.0856 732.036 52.715 752.679C130.737 773.938 206.044 790.631 286.919 775.388C419.748 750.364 536.04 702.954 671.815 745.504M-407.796 761.133C-325.64 760.963 -245.104 747.464 -163.241 743.422C-84.448 739.549 -11.6862 749.145 65.009 766.98C143 785.108 219.495 799.518 299.553 786.08C427.707 764.558 541.547 722.147 671.846 760.948M-407.796 776.561C-326.504 776.7 -246.338 766.224 -165.293 762.367C-82.4582 758.433 -4.37459 765.437 76.8558 781.328C156.513 796.91 235.244 808.589 316.305 796.216C438.243 777.595 548.473 741.91 671.846 776.391M-407.796 791.989C-323.851 792.39 -240.646 783.612 -156.855 780.557C-73.7582 777.533 6.03758 782.64 88.0855 795.753C167.804 808.497 247.307 818.062 327.936 807.494C445.447 792.097 553.471 761.102 671.877 791.819M-407.796 807.417C-237.731 808.666 -71.1976 788.764 98.4976 810.286C178.355 820.407 258.413 827.951 338.826 819.157C452.126 806.769 558.129 780.433 671.892 807.293M-407.796 822.845C-235.263 824.387 -64.4258 808.219 107.861 824.897C187.95 832.641 268.378 838.272 348.76 831.206C458.173 821.579 562.325 799.842 671.907 822.737M-407.796 838.273C-232.933 839.97 -58.7338 827.396 115.99 839.63C196.357 845.261 277.062 849.149 357.568 843.734C463.494 836.622 565.996 819.389 671.923 838.18M-407.796 853.7C-230.882 855.351 -54.168 846.233 122.685 854.487C203.375 858.252 284.297 860.643 365.049 856.801C468.014 851.911 569.066 839.106 671.938 853.623M-407.796 869.128C-229.262 870.501 -50.7589 864.639 127.729 869.483C208.774 871.689 289.927 872.877 370.988 870.486C471.608 867.524 571.411 859.039 671.954 869.067M-407.796 884.556C-228.213 885.405 -48.6302 882.566 130.937 884.649C310.983 886.732 492.216 874.976 671.969 884.525M-407.811 899.984C-407.657 540.005 -408.305 180.01 -407.811 -179.969C-47.8892 -179.676 312.047 -179.83 671.969 -179.969C671.846 180.01 671.768 540.005 671.969 899.984C312.047 899.49 -47.8892 900.031 -407.811 899.984Z" stroke="url(#paint0_linear_148_24323)" stroke-opacity="0.32" stroke-miterlimit="10"/>
<defs>
<linearGradient id="paint0_linear_148_24323" x1="-71.5526" y1="381.622" x2="131.996" y2="900.002" gradientUnits="userSpaceOnUse">
<stop offset="0.163536" stop-color="#0D0416"/>
<stop offset="1" stop-color="#331551"/>
</linearGradient>
</defs>
</svg>
