<svg width="94" height="64" viewBox="0 0 94 64" fill="none" xmlns="http://www.w3.org/2000/svg">
<g filter="url(#filter0_di_5439_2133)">
<g clip-path="url(#clip0_5439_2133)">
<g clip-path="url(#clip1_5439_2133)">
<rect width="90" height="60" transform="translate(2 1)" fill="url(#paint0_linear_5439_2133)"/>
<path d="M2.5 11C2.5 5.7533 6.7533 1.5 12 1.5H82C87.2467 1.5 91.5 5.75329 91.5 11V51C91.5 56.2467 87.2467 60.5 82 60.5H12C6.75329 60.5 2.5 56.2467 2.5 51V11Z" stroke="url(#paint1_linear_5439_2133)"/>
<mask id="mask0_5439_2133" style="mask-type:alpha" maskUnits="userSpaceOnUse" x="2" y="1" width="90" height="60">
<path d="M2 1H92V61H2V1Z" fill="url(#paint2_linear_5439_2133)"/>
</mask>
<g mask="url(#mask0_5439_2133)">
<path d="M21 16C21 13.7909 22.7909 12 25 12H69C71.2091 12 73 13.7909 73 16V52.4304C73 54.6396 71.2091 56.4304 69 56.4304H25C22.7909 56.4304 21 54.6396 21 52.4304V16Z" fill="#141217"/>
<path d="M21.5 16C21.5 14.067 23.067 12.5 25 12.5H69C70.933 12.5 72.5 14.067 72.5 16V52.4304C72.5 54.3634 70.933 55.9304 69 55.9304H25C23.067 55.9304 21.5 54.3634 21.5 52.4304V16Z" stroke="#8040BF" stroke-opacity="0.4"/>
<path d="M17 22C17 19.7909 18.7909 18 21 18H73C75.2091 18 77 19.7909 77 22V58.4304C77 60.6396 75.2091 62.4304 73 62.4304H21C18.7909 62.4304 17 60.6396 17 58.4304V22Z" fill="#141217"/>
<path d="M17.5 22C17.5 20.067 19.067 18.5 21 18.5H73C74.933 18.5 76.5 20.067 76.5 22V58.4304C76.5 60.3634 74.933 61.9304 73 61.9304H21C19.067 61.9304 17.5 60.3634 17.5 58.4304V22Z" stroke="#8040BF" stroke-opacity="0.4"/>
<path d="M12 28C12 25.7909 13.7909 24 16 24H78C80.2091 24 82 25.7909 82 28V65.0228C82 67.2319 80.2091 69.0228 78 69.0228H16C13.7909 69.0228 12 67.2319 12 65.0228V28Z" fill="#141217"/>
<path d="M12.5 28C12.5 26.067 14.067 24.5 16 24.5H78C79.933 24.5 81.5 26.067 81.5 28V65.0228C81.5 66.9558 79.933 68.5228 78 68.5228H16C14.067 68.5228 12.5 66.9558 12.5 65.0228V28Z" stroke="#8040BF" stroke-opacity="0.4"/>
<path d="M48.2035 39.8015V44.1499L51.8166 46.3176C51.9986 46.4269 52.1297 46.604 52.1811 46.81C52.2325 47.016 52.2 47.2339 52.0907 47.4159C51.9814 47.5979 51.8043 47.729 51.5983 47.7804C51.3923 47.8318 51.1744 47.7993 50.9924 47.69L46.9911 45.2892C46.8727 45.2181 46.7747 45.1175 46.7067 44.9972C46.6387 44.877 46.603 44.7412 46.603 44.603V39.8015C46.603 39.5893 46.6873 39.3857 46.8374 39.2357C46.9875 39.0856 47.191 39.0013 47.4032 39.0013C47.6155 39.0013 47.819 39.0856 47.9691 39.2357C48.1192 39.3857 48.2035 39.5893 48.2035 39.8015ZM47.4032 35C46.1409 34.9969 44.8904 35.2441 43.7242 35.7275C42.5579 36.2108 41.4992 36.9207 40.6091 37.8159C39.8819 38.5521 39.2357 39.2604 38.6005 40.0016V38.201C38.6005 37.9888 38.5162 37.7852 38.3661 37.6352C38.216 37.4851 38.0125 37.4008 37.8002 37.4008C37.588 37.4008 37.3845 37.4851 37.2344 37.6352C37.0843 37.7852 37 37.9888 37 38.201V42.2023C37 42.4145 37.0843 42.6181 37.2344 42.7681C37.3845 42.9182 37.588 43.0025 37.8002 43.0025H41.8015C42.0137 43.0025 42.2173 42.9182 42.3674 42.7681C42.5174 42.6181 42.6017 42.4145 42.6017 42.2023C42.6017 41.99 42.5174 41.7865 42.3674 41.6364C42.2173 41.4863 42.0137 41.402 41.8015 41.402H39.5008C40.216 40.5598 40.9282 39.7665 41.7405 38.9443C42.8527 37.8321 44.268 37.0723 45.8095 36.7599C47.3511 36.4474 48.9505 36.5962 50.408 37.1876C51.8654 37.779 53.1163 38.7868 54.0043 40.085C54.8923 41.3833 55.378 42.9144 55.4008 44.4871C55.4235 46.0599 54.9823 47.6044 54.1322 48.9278C53.2822 50.2512 52.061 51.2948 50.6212 51.9281C49.1815 52.5614 47.587 52.7563 46.0371 52.4886C44.4871 52.2209 43.0504 51.5024 41.9065 50.4228C41.8301 50.3506 41.7401 50.2941 41.6419 50.2566C41.5436 50.2191 41.4389 50.2014 41.3337 50.2043C41.2286 50.2073 41.125 50.231 41.029 50.2739C40.933 50.3169 40.8464 50.3784 40.7742 50.4549C40.7019 50.5313 40.6454 50.6212 40.608 50.7195C40.5705 50.8178 40.5527 50.9225 40.5557 51.0277C40.5586 51.1328 40.5823 51.2363 40.6253 51.3324C40.6683 51.4284 40.7297 51.515 40.8062 51.5872C41.946 52.6628 43.3317 53.4431 44.8425 53.86C46.3532 54.2769 47.943 54.3177 49.4731 53.9789C51.0032 53.6401 52.4272 52.9319 53.6207 51.9163C54.8142 50.9006 55.741 49.6082 56.3202 48.1519C56.8993 46.6957 57.1133 45.1198 56.9434 43.5619C56.7735 42.0039 56.2249 40.5112 55.3454 39.2141C54.4659 37.9169 53.2823 36.8547 51.898 36.1202C50.5136 35.3856 48.9704 35.001 47.4032 35Z" fill="#8040BF"/>
</g>
</g>
</g>
</g>
<defs>
<filter id="filter0_di_5439_2133" x="0" y="0" width="94" height="64" filterUnits="userSpaceOnUse" color-interpolation-filters="sRGB">
<feFlood flood-opacity="0" result="BackgroundImageFix"/>
<feColorMatrix in="SourceAlpha" type="matrix" values="0 0 0 0 0 0 0 0 0 0 0 0 0 0 0 0 0 0 127 0" result="hardAlpha"/>
<feOffset dy="1"/>
<feGaussianBlur stdDeviation="1"/>
<feComposite in2="hardAlpha" operator="out"/>
<feColorMatrix type="matrix" values="0 0 0 0 0 0 0 0 0 0 0 0 0 0 0 0 0 0 0.4 0"/>
<feBlend mode="normal" in2="BackgroundImageFix" result="effect1_dropShadow_5439_2133"/>
<feBlend mode="normal" in="SourceGraphic" in2="effect1_dropShadow_5439_2133" result="shape"/>
<feColorMatrix in="SourceAlpha" type="matrix" values="0 0 0 0 0 0 0 0 0 0 0 0 0 0 0 0 0 0 127 0" result="hardAlpha"/>
<feMorphology radius="2" operator="erode" in="SourceAlpha" result="effect2_innerShadow_5439_2133"/>
<feOffset/>
<feComposite in2="hardAlpha" operator="arithmetic" k2="-1" k3="1"/>
<feColorMatrix type="matrix" values="0 0 0 0 1 0 0 0 0 1 0 0 0 0 1 0 0 0 0.12 0"/>
<feBlend mode="normal" in2="shape" result="effect2_innerShadow_5439_2133"/>
</filter>
<linearGradient id="paint0_linear_5439_2133" x1="45" y1="0" x2="45" y2="60" gradientUnits="userSpaceOnUse">
<stop stop-color="#8040BF" stop-opacity="0.24"/>
<stop offset="1" stop-color="#141217"/>
</linearGradient>
<linearGradient id="paint1_linear_5439_2133" x1="10.4" y1="1" x2="22.1" y2="33.4" gradientUnits="userSpaceOnUse">
<stop stop-color="#C494F4"/>
<stop offset="1" stop-color="white" stop-opacity="0.02"/>
</linearGradient>
<linearGradient id="paint2_linear_5439_2133" x1="46.5946" y1="9.03571" x2="46.7716" y2="61.0008" gradientUnits="userSpaceOnUse">
<stop stop-color="white"/>
<stop offset="1" stop-color="white" stop-opacity="0.02"/>
</linearGradient>
<clipPath id="clip0_5439_2133">
<path d="M2 11C2 5.47715 6.47715 1 12 1H82C87.5229 1 92 5.47715 92 11V51C92 56.5228 87.5229 61 82 61H12C6.47715 61 2 56.5228 2 51V11Z" fill="white"/>
</clipPath>
<clipPath id="clip1_5439_2133">
<rect width="90" height="60" fill="white" transform="translate(2 1)"/>
</clipPath>
</defs>
</svg>
