<svg width="94" height="64" viewBox="0 0 94 64" fill="none" xmlns="http://www.w3.org/2000/svg">
<g filter="url(#filter0_di_5439_1821)">
<g clip-path="url(#clip0_5439_1821)">
<g clip-path="url(#clip1_5439_1821)">
<rect width="90" height="60" transform="translate(2 1)" fill="url(#paint0_linear_5439_1821)"/>
<mask id="mask0_5439_1821" style="mask-type:alpha" maskUnits="userSpaceOnUse" x="2" y="1" width="90" height="60">
<path d="M2 1H92V61H2V1Z" fill="url(#paint1_linear_5439_1821)"/>
</mask>
<g mask="url(#mask0_5439_1821)">
<path d="M2.5 11C2.5 5.7533 6.7533 1.5 12 1.5H82C87.2467 1.5 91.5 5.75329 91.5 11V51C91.5 56.2467 87.2467 60.5 82 60.5H12C6.75329 60.5 2.5 56.2467 2.5 51V11Z" stroke="url(#paint2_linear_5439_1821)"/>
<path d="M21 16C21 13.7909 22.7909 12 25 12H69C71.2091 12 73 13.7909 73 16V55C73 57.2091 71.2091 59 69 59H25C22.7909 59 21 57.2091 21 55V16Z" fill="#141217"/>
<path d="M21.5 16C21.5 14.067 23.067 12.5 25 12.5H69C70.933 12.5 72.5 14.067 72.5 16V55C72.5 56.933 70.933 58.5 69 58.5H25C23.067 58.5 21.5 56.933 21.5 55V16Z" stroke="#8040BF" stroke-opacity="0.4"/>
<rect x="31.4004" y="18" width="2" height="6.06667" rx="0.25" transform="rotate(90 31.4004 18)" fill="#8040BF"/>
<rect x="31.4004" y="23" width="3" height="6.06667" rx="0.25" transform="rotate(90 31.4004 23)" fill="#1D1B20"/>
<rect x="31.4004" y="29" width="2" height="6.06667" rx="0.25" transform="rotate(90 31.4004 29)" fill="#1D1B20"/>
<rect x="31.4004" y="34" width="3" height="6.06667" rx="0.25" transform="rotate(90 31.4004 34)" fill="#1D1B20"/>
<rect x="31.4004" y="40" width="2" height="6.06667" rx="0.25" transform="rotate(90 31.4004 40)" fill="#1D1B20"/>
<rect x="57.4004" y="18" width="2" height="22.5333" rx="0.25" transform="rotate(90 57.4004 18)" fill="#8040BF"/>
<rect x="57.4004" y="23" width="3" height="22.5333" rx="0.25" transform="rotate(90 57.4004 23)" fill="#1D1B20"/>
<rect x="57.4004" y="29" width="2" height="22.5333" rx="0.25" transform="rotate(90 57.4004 29)" fill="#1D1B20"/>
<rect x="57.4004" y="34" width="3" height="22.5333" rx="0.25" transform="rotate(90 57.4004 34)" fill="#1D1B20"/>
<rect x="57.4004" y="40" width="2" height="22.5333" rx="0.25" transform="rotate(90 57.4004 40)" fill="#1D1B20"/>
<rect x="70.4004" y="18" width="2" height="9.53333" rx="0.25" transform="rotate(90 70.4004 18)" fill="#8040BF"/>
<rect x="70.4004" y="23" width="3" height="9.53333" rx="0.25" transform="rotate(90 70.4004 23)" fill="#1D1B20"/>
<rect x="70.4004" y="29" width="2" height="9.53333" rx="0.25" transform="rotate(90 70.4004 29)" fill="#1D1B20"/>
<rect x="70.4004" y="34" width="3" height="9.53333" rx="0.25" transform="rotate(90 70.4004 34)" fill="#1D1B20"/>
<rect x="70.4004" y="40" width="2" height="9.53333" rx="0.25" transform="rotate(90 70.4004 40)" fill="#1D1B20"/>
<path d="M17 22C17 19.7909 18.7909 18 21 18H73C75.2091 18 77 19.7909 77 22V61C77 63.2091 75.2091 65 73 65H21C18.7909 65 17 63.2091 17 61V22Z" fill="#141217"/>
<path d="M17.5 22C17.5 20.067 19.067 18.5 21 18.5H73C74.933 18.5 76.5 20.067 76.5 22V61C76.5 62.933 74.933 64.5 73 64.5H21C19.067 64.5 17.5 62.933 17.5 61V22Z" stroke="#8040BF" stroke-opacity="0.4"/>
<rect x="28.8037" y="24" width="3" height="6.88525" rx="0.5" transform="rotate(90 28.8037 24)" fill="#8040BF"/>
<rect x="28.8037" y="29" width="3" height="6.88525" rx="0.5" transform="rotate(90 28.8037 29)" fill="#1D1B20"/>
<rect x="28.8037" y="35" width="3" height="6.88525" rx="0.5" transform="rotate(90 28.8037 35)" fill="#1D1B20"/>
<rect x="28.8037" y="40" width="3" height="6.88525" rx="0.5" transform="rotate(90 28.8037 40)" fill="#1D1B20"/>
<rect x="28.8037" y="46" width="3" height="6.88525" rx="0.5" transform="rotate(90 28.8037 46)" fill="#1D1B20"/>
<rect x="59.2949" y="24" width="3" height="26.5574" rx="0.5" transform="rotate(90 59.2949 24)" fill="#8040BF"/>
<rect x="59.2949" y="29" width="3" height="26.5574" rx="0.5" transform="rotate(90 59.2949 29)" fill="#1D1B20"/>
<rect x="59.2949" y="35" width="3" height="26.5574" rx="0.5" transform="rotate(90 59.2949 35)" fill="#1D1B20"/>
<rect x="59.2949" y="40" width="3" height="26.5574" rx="0.5" transform="rotate(90 59.2949 40)" fill="#1D1B20"/>
<rect x="59.2949" y="46" width="3" height="26.5574" rx="0.5" transform="rotate(90 59.2949 46)" fill="#1D1B20"/>
<rect x="74.0488" y="24" width="3" height="10.8197" rx="0.5" transform="rotate(90 74.0488 24)" fill="#8040BF"/>
<rect x="74.0488" y="29" width="3" height="10.8197" rx="0.5" transform="rotate(90 74.0488 29)" fill="#1D1B20"/>
<rect x="74.0488" y="35" width="3" height="10.8197" rx="0.5" transform="rotate(90 74.0488 35)" fill="#1D1B20"/>
<rect x="74.0488" y="40" width="3" height="10.8197" rx="0.5" transform="rotate(90 74.0488 40)" fill="#1D1B20"/>
<rect x="74.0488" y="46" width="3" height="10.8197" rx="0.5" transform="rotate(90 74.0488 46)" fill="#1D1B20"/>
<path d="M12 28C12 25.7909 13.7909 24 16 24H78C80.2091 24 82 25.7909 82 28V67C82 69.2091 80.2091 71 78 71H16C13.7909 71 12 69.2091 12 67V28Z" fill="#141217"/>
<path d="M12.5 28C12.5 26.067 14.067 24.5 16 24.5H78C79.933 24.5 81.5 26.067 81.5 28V67C81.5 68.933 79.933 70.5 78 70.5H16C14.067 70.5 12.5 68.933 12.5 67V28Z" stroke="#8040BF" stroke-opacity="0.4"/>
<rect x="25.582" y="29" width="3" height="7.31343" rx="0.75" transform="rotate(90 25.582 29)" fill="#8040BF"/>
<rect x="25.582" y="34" width="3" height="7.31343" rx="0.75" transform="rotate(90 25.582 34)" fill="#1D1B20"/>
<rect x="25.582" y="40" width="3" height="7.31343" rx="0.75" transform="rotate(90 25.582 40)" fill="#1D1B20"/>
<rect x="25.582" y="45" width="3" height="7.31343" rx="0.75" transform="rotate(90 25.582 45)" fill="#1D1B20"/>
<rect x="25.582" y="51" width="3" height="7.31343" rx="0.75" transform="rotate(90 25.582 51)" fill="#1D1B20"/>
<rect x="61.1045" y="29" width="3" height="30.2985" rx="0.75" transform="rotate(90 61.1045 29)" fill="#8040BF"/>
<rect x="61.1045" y="34" width="3" height="30.2985" rx="0.75" transform="rotate(90 61.1045 34)" fill="#1D1B20"/>
<rect x="61.1045" y="40" width="3" height="30.2985" rx="0.75" transform="rotate(90 61.1045 40)" fill="#1D1B20"/>
<rect x="61.1045" y="45" width="3" height="30.2985" rx="0.75" transform="rotate(90 61.1045 45)" fill="#1D1B20"/>
<rect x="61.1045" y="51" width="3" height="30.2985" rx="0.75" transform="rotate(90 61.1045 51)" fill="#1D1B20"/>
<rect x="78.8652" y="29" width="3" height="13.5821" rx="0.75" transform="rotate(90 78.8652 29)" fill="#8040BF"/>
<rect x="78.8652" y="34" width="3" height="13.5821" rx="0.75" transform="rotate(90 78.8652 34)" fill="#1D1B20"/>
<rect x="78.8652" y="40" width="3" height="13.5821" rx="0.75" transform="rotate(90 78.8652 40)" fill="#1D1B20"/>
<rect x="78.8652" y="45" width="3" height="13.5821" rx="0.75" transform="rotate(90 78.8652 45)" fill="#1D1B20"/>
<rect x="78.8652" y="51" width="3" height="13.5821" rx="0.75" transform="rotate(90 78.8652 51)" fill="#1D1B20"/>
</g>
</g>
</g>
</g>
<defs>
<filter id="filter0_di_5439_1821" x="0" y="0" width="94" height="64" filterUnits="userSpaceOnUse" color-interpolation-filters="sRGB">
<feFlood flood-opacity="0" result="BackgroundImageFix"/>
<feColorMatrix in="SourceAlpha" type="matrix" values="0 0 0 0 0 0 0 0 0 0 0 0 0 0 0 0 0 0 127 0" result="hardAlpha"/>
<feOffset dy="1"/>
<feGaussianBlur stdDeviation="1"/>
<feComposite in2="hardAlpha" operator="out"/>
<feColorMatrix type="matrix" values="0 0 0 0 0 0 0 0 0 0 0 0 0 0 0 0 0 0 0.4 0"/>
<feBlend mode="normal" in2="BackgroundImageFix" result="effect1_dropShadow_5439_1821"/>
<feBlend mode="normal" in="SourceGraphic" in2="effect1_dropShadow_5439_1821" result="shape"/>
<feColorMatrix in="SourceAlpha" type="matrix" values="0 0 0 0 0 0 0 0 0 0 0 0 0 0 0 0 0 0 127 0" result="hardAlpha"/>
<feMorphology radius="2" operator="erode" in="SourceAlpha" result="effect2_innerShadow_5439_1821"/>
<feOffset/>
<feComposite in2="hardAlpha" operator="arithmetic" k2="-1" k3="1"/>
<feColorMatrix type="matrix" values="0 0 0 0 1 0 0 0 0 1 0 0 0 0 1 0 0 0 0.12 0"/>
<feBlend mode="normal" in2="shape" result="effect2_innerShadow_5439_1821"/>
</filter>
<linearGradient id="paint0_linear_5439_1821" x1="45" y1="0" x2="45" y2="60" gradientUnits="userSpaceOnUse">
<stop stop-color="#8040BF" stop-opacity="0.24"/>
<stop offset="1" stop-color="#141217"/>
</linearGradient>
<linearGradient id="paint1_linear_5439_1821" x1="46.5946" y1="9.03571" x2="46.7716" y2="61.0008" gradientUnits="userSpaceOnUse">
<stop stop-color="white"/>
<stop offset="1" stop-color="white" stop-opacity="0.02"/>
</linearGradient>
<linearGradient id="paint2_linear_5439_1821" x1="10.4" y1="1" x2="22.1" y2="33.4" gradientUnits="userSpaceOnUse">
<stop stop-color="#C494F4"/>
<stop offset="1" stop-color="white" stop-opacity="0.02"/>
</linearGradient>
<clipPath id="clip0_5439_1821">
<path d="M2 11C2 5.47715 6.47715 1 12 1H82C87.5229 1 92 5.47715 92 11V51C92 56.5228 87.5229 61 82 61H12C6.47715 61 2 56.5228 2 51V11Z" fill="white"/>
</clipPath>
<clipPath id="clip1_5439_1821">
<rect width="90" height="60" fill="white" transform="translate(2 1)"/>
</clipPath>
</defs>
</svg>
